<svg version="1.2" xmlns="http://www.w3.org/2000/svg" viewBox="0 0 1080 408" width="1080" height="408">
	<title>11-svg</title>
	<defs>
		<linearGradient id="g1" x2="1" gradientUnits="userSpaceOnUse" gradientTransform="matrix(396,19.06,-8.247,171.348,-54.07,180.5)">
			<stop offset="0" stop-color="#025478"/>
			<stop offset=".02" stop-color="#05547a"/>
			<stop offset=".03" stop-color="#02567b"/>
			<stop offset=".04" stop-color="#03567c"/>
			<stop offset=".05" stop-color="#03577d"/>
			<stop offset=".06" stop-color="#01587e"/>
			<stop offset=".07" stop-color="#03597f"/>
			<stop offset=".08" stop-color="#055880"/>
			<stop offset=".09" stop-color="#055a81"/>
			<stop offset=".1" stop-color="#065b82"/>
			<stop offset=".11" stop-color="#075b83"/>
			<stop offset=".12" stop-color="#055c84"/>
			<stop offset=".13" stop-color="#075c85"/>
			<stop offset=".14" stop-color="#085d85"/>
			<stop offset=".15" stop-color="#045d86"/>
			<stop offset=".16" stop-color="#055f88"/>
			<stop offset=".17" stop-color="#075f88"/>
			<stop offset=".18" stop-color="#08608a"/>
			<stop offset=".19" stop-color="#08618b"/>
			<stop offset=".2" stop-color="#08628c"/>
			<stop offset=".21" stop-color="#06638d"/>
			<stop offset=".22" stop-color="#07638e"/>
			<stop offset=".23" stop-color="#036490"/>
			<stop offset=".24" stop-color="#056590"/>
			<stop offset=".25" stop-color="#066591"/>
			<stop offset=".26" stop-color="#016692"/>
			<stop offset=".27" stop-color="#036794"/>
			<stop offset=".28" stop-color="#046894"/>
			<stop offset=".29" stop-color="#056896"/>
			<stop offset=".3" stop-color="#026997"/>
			<stop offset=".31" stop-color="#026a99"/>
			<stop offset=".32" stop-color="#026a99"/>
			<stop offset=".33" stop-color="#056b99"/>
			<stop offset=".34" stop-color="#076c9b"/>
			<stop offset=".35" stop-color="#026d9d"/>
			<stop offset=".36" stop-color="#026d9d"/>
			<stop offset=".37" stop-color="#056e9d"/>
			<stop offset=".38" stop-color="#076f9f"/>
			<stop offset=".39" stop-color="#066fa0"/>
			<stop offset=".4" stop-color="#0b70a0"/>
			<stop offset=".41" stop-color="#0771a2"/>
			<stop offset=".42" stop-color="#0872a3"/>
			<stop offset=".43" stop-color="#0972a4"/>
			<stop offset=".44" stop-color="#0b73a4"/>
			<stop offset=".45" stop-color="#0774a6"/>
			<stop offset=".46" stop-color="#0974a7"/>
			<stop offset=".47" stop-color="#0375a8"/>
			<stop offset=".48" stop-color="#0376a9"/>
			<stop offset=".49" stop-color="#0777aa"/>
			<stop offset=".5" stop-color="#0877ab"/>
			<stop offset=".51" stop-color="#0978ad"/>
			<stop offset=".52" stop-color="#0679ad"/>
			<stop offset=".53" stop-color="#077aae"/>
			<stop offset=".54" stop-color="#057ab0"/>
			<stop offset=".55" stop-color="#0a7bb0"/>
			<stop offset=".56" stop-color="#067cb1"/>
			<stop offset=".57" stop-color="#057cb3"/>
			<stop offset=".58" stop-color="#067db4"/>
			<stop offset=".59" stop-color="#0a7eb4"/>
			<stop offset=".6" stop-color="#047fb6"/>
			<stop offset=".61" stop-color="#067fb6"/>
			<stop offset=".62" stop-color="#0680b8"/>
			<stop offset=".63" stop-color="#0181b8"/>
			<stop offset=".64" stop-color="#0280b9"/>
			<stop offset=".65" stop-color="#0482ba"/>
			<stop offset=".66" stop-color="#0683bd"/>
			<stop offset=".67" stop-color="#0283bc"/>
			<stop offset=".68" stop-color="#0084bd"/>
			<stop offset=".69" stop-color="#0485be"/>
			<stop offset=".7" stop-color="#0785c0"/>
			<stop offset=".71" stop-color="#0785c0"/>
			<stop offset=".72" stop-color="#0187c1"/>
			<stop offset=".73" stop-color="#0487c3"/>
			<stop offset=".74" stop-color="#0088c4"/>
			<stop offset=".75" stop-color="#0088c4"/>
			<stop offset=".76" stop-color="#0289c5"/>
			<stop offset=".77" stop-color="#058ac7"/>
			<stop offset=".78" stop-color="#038ac8"/>
			<stop offset=".79" stop-color="#098bc8"/>
			<stop offset=".8" stop-color="#0a8cca"/>
			<stop offset=".81" stop-color="#038dcb"/>
			<stop offset=".82" stop-color="#048dcc"/>
			<stop offset=".83" stop-color="#098ecc"/>
			<stop offset=".84" stop-color="#0c8fcd"/>
			<stop offset=".85" stop-color="#0a8fcf"/>
			<stop offset=".86" stop-color="#0c90d0"/>
			<stop offset=".87" stop-color="#0b91cf"/>
			<stop offset=".88" stop-color="#0c92d2"/>
			<stop offset=".89" stop-color="#0e92d1"/>
			<stop offset=".9" stop-color="#1193d2"/>
			<stop offset=".91" stop-color="#0c94d3"/>
			<stop offset=".92" stop-color="#0e94d2"/>
			<stop offset=".93" stop-color="#1195d3"/>
			<stop offset=".94" stop-color="#0f95d4"/>
			<stop offset=".95" stop-color="#1197d5"/>
			<stop offset=".96" stop-color="#1197d5"/>
			<stop offset=".97" stop-color="#1597d5"/>
			<stop offset=".98" stop-color="#1198d6"/>
			<stop offset=".99" stop-color="#1998d6"/>
			<stop offset="1" stop-color="#1599d6"/>
		</linearGradient>
		<linearGradient id="g2" x2="1" gradientUnits="userSpaceOnUse" gradientTransform="matrix(396,19.06,-7.128,148.088,-54.63,192.16)">
			<stop offset="0" stop-color="#025478"/>
			<stop offset=".02" stop-color="#05547a"/>
			<stop offset=".03" stop-color="#02567b"/>
			<stop offset=".04" stop-color="#03567c"/>
			<stop offset=".05" stop-color="#03577d"/>
			<stop offset=".06" stop-color="#01587e"/>
			<stop offset=".07" stop-color="#03597f"/>
			<stop offset=".08" stop-color="#055880"/>
			<stop offset=".09" stop-color="#055a81"/>
			<stop offset=".1" stop-color="#065b82"/>
			<stop offset=".11" stop-color="#075b83"/>
			<stop offset=".12" stop-color="#055c84"/>
			<stop offset=".13" stop-color="#075c85"/>
			<stop offset=".14" stop-color="#085d85"/>
			<stop offset=".15" stop-color="#045d86"/>
			<stop offset=".16" stop-color="#055f88"/>
			<stop offset=".17" stop-color="#075f88"/>
			<stop offset=".18" stop-color="#08608a"/>
			<stop offset=".19" stop-color="#08618b"/>
			<stop offset=".2" stop-color="#08628c"/>
			<stop offset=".21" stop-color="#06638d"/>
			<stop offset=".22" stop-color="#07638e"/>
			<stop offset=".23" stop-color="#036490"/>
			<stop offset=".24" stop-color="#056590"/>
			<stop offset=".25" stop-color="#066591"/>
			<stop offset=".26" stop-color="#016692"/>
			<stop offset=".27" stop-color="#036794"/>
			<stop offset=".28" stop-color="#046894"/>
			<stop offset=".29" stop-color="#056896"/>
			<stop offset=".3" stop-color="#026997"/>
			<stop offset=".31" stop-color="#026a99"/>
			<stop offset=".32" stop-color="#026a99"/>
			<stop offset=".33" stop-color="#056b99"/>
			<stop offset=".34" stop-color="#076c9b"/>
			<stop offset=".35" stop-color="#026d9d"/>
			<stop offset=".36" stop-color="#026d9d"/>
			<stop offset=".37" stop-color="#056e9d"/>
			<stop offset=".38" stop-color="#076f9f"/>
			<stop offset=".39" stop-color="#066fa0"/>
			<stop offset=".4" stop-color="#0b70a0"/>
			<stop offset=".41" stop-color="#0771a2"/>
			<stop offset=".42" stop-color="#0872a3"/>
			<stop offset=".43" stop-color="#0972a4"/>
			<stop offset=".44" stop-color="#0b73a4"/>
			<stop offset=".45" stop-color="#0774a6"/>
			<stop offset=".46" stop-color="#0974a7"/>
			<stop offset=".47" stop-color="#0375a8"/>
			<stop offset=".48" stop-color="#0376a9"/>
			<stop offset=".49" stop-color="#0777aa"/>
			<stop offset=".5" stop-color="#0877ab"/>
			<stop offset=".51" stop-color="#0978ad"/>
			<stop offset=".52" stop-color="#0679ad"/>
			<stop offset=".53" stop-color="#077aae"/>
			<stop offset=".54" stop-color="#057ab0"/>
			<stop offset=".55" stop-color="#0a7bb0"/>
			<stop offset=".56" stop-color="#067cb1"/>
			<stop offset=".57" stop-color="#057cb3"/>
			<stop offset=".58" stop-color="#067db4"/>
			<stop offset=".59" stop-color="#0a7eb4"/>
			<stop offset=".6" stop-color="#047fb6"/>
			<stop offset=".61" stop-color="#067fb6"/>
			<stop offset=".62" stop-color="#0680b8"/>
			<stop offset=".63" stop-color="#0181b8"/>
			<stop offset=".64" stop-color="#0280b9"/>
			<stop offset=".65" stop-color="#0482ba"/>
			<stop offset=".66" stop-color="#0683bd"/>
			<stop offset=".67" stop-color="#0283bc"/>
			<stop offset=".68" stop-color="#0084bd"/>
			<stop offset=".69" stop-color="#0485be"/>
			<stop offset=".7" stop-color="#0785c0"/>
			<stop offset=".71" stop-color="#0785c0"/>
			<stop offset=".72" stop-color="#0187c1"/>
			<stop offset=".73" stop-color="#0487c3"/>
			<stop offset=".74" stop-color="#0088c4"/>
			<stop offset=".75" stop-color="#0088c4"/>
			<stop offset=".76" stop-color="#0289c5"/>
			<stop offset=".77" stop-color="#058ac7"/>
			<stop offset=".78" stop-color="#038ac8"/>
			<stop offset=".79" stop-color="#098bc8"/>
			<stop offset=".8" stop-color="#0a8cca"/>
			<stop offset=".81" stop-color="#038dcb"/>
			<stop offset=".82" stop-color="#048dcc"/>
			<stop offset=".83" stop-color="#098ecc"/>
			<stop offset=".84" stop-color="#0c8fcd"/>
			<stop offset=".85" stop-color="#0a8fcf"/>
			<stop offset=".86" stop-color="#0c90d0"/>
			<stop offset=".87" stop-color="#0b91cf"/>
			<stop offset=".88" stop-color="#0c92d2"/>
			<stop offset=".89" stop-color="#0e92d1"/>
			<stop offset=".9" stop-color="#1193d2"/>
			<stop offset=".91" stop-color="#0c94d3"/>
			<stop offset=".92" stop-color="#0e94d2"/>
			<stop offset=".93" stop-color="#1195d3"/>
			<stop offset=".94" stop-color="#0f95d4"/>
			<stop offset=".95" stop-color="#1197d5"/>
			<stop offset=".96" stop-color="#1197d5"/>
			<stop offset=".97" stop-color="#1597d5"/>
			<stop offset=".98" stop-color="#1198d6"/>
			<stop offset=".99" stop-color="#1998d6"/>
			<stop offset="1" stop-color="#1599d6"/>
		</linearGradient>
		<linearGradient id="g3" x2="1" gradientUnits="userSpaceOnUse" gradientTransform="matrix(396,19.06,-24.928,517.925,-58.47,271.94)">
			<stop offset="0" stop-color="#025478"/>
			<stop offset=".02" stop-color="#05547a"/>
			<stop offset=".03" stop-color="#02567b"/>
			<stop offset=".04" stop-color="#03567c"/>
			<stop offset=".05" stop-color="#03577d"/>
			<stop offset=".06" stop-color="#01587e"/>
			<stop offset=".07" stop-color="#03597f"/>
			<stop offset=".08" stop-color="#055880"/>
			<stop offset=".09" stop-color="#055a81"/>
			<stop offset=".1" stop-color="#065b82"/>
			<stop offset=".11" stop-color="#075b83"/>
			<stop offset=".12" stop-color="#055c84"/>
			<stop offset=".13" stop-color="#075c85"/>
			<stop offset=".14" stop-color="#085d85"/>
			<stop offset=".15" stop-color="#045d86"/>
			<stop offset=".16" stop-color="#055f88"/>
			<stop offset=".17" stop-color="#075f88"/>
			<stop offset=".18" stop-color="#08608a"/>
			<stop offset=".19" stop-color="#08618b"/>
			<stop offset=".2" stop-color="#08628c"/>
			<stop offset=".21" stop-color="#06638d"/>
			<stop offset=".22" stop-color="#07638e"/>
			<stop offset=".23" stop-color="#036490"/>
			<stop offset=".24" stop-color="#056590"/>
			<stop offset=".25" stop-color="#066591"/>
			<stop offset=".26" stop-color="#016692"/>
			<stop offset=".27" stop-color="#036794"/>
			<stop offset=".28" stop-color="#046894"/>
			<stop offset=".29" stop-color="#056896"/>
			<stop offset=".3" stop-color="#026997"/>
			<stop offset=".31" stop-color="#026a99"/>
			<stop offset=".32" stop-color="#026a99"/>
			<stop offset=".33" stop-color="#056b99"/>
			<stop offset=".34" stop-color="#076c9b"/>
			<stop offset=".35" stop-color="#026d9d"/>
			<stop offset=".36" stop-color="#026d9d"/>
			<stop offset=".37" stop-color="#056e9d"/>
			<stop offset=".38" stop-color="#076f9f"/>
			<stop offset=".39" stop-color="#066fa0"/>
			<stop offset=".4" stop-color="#0b70a0"/>
			<stop offset=".41" stop-color="#0771a2"/>
			<stop offset=".42" stop-color="#0872a3"/>
			<stop offset=".43" stop-color="#0972a4"/>
			<stop offset=".44" stop-color="#0b73a4"/>
			<stop offset=".45" stop-color="#0774a6"/>
			<stop offset=".46" stop-color="#0974a7"/>
			<stop offset=".47" stop-color="#0375a8"/>
			<stop offset=".48" stop-color="#0376a9"/>
			<stop offset=".49" stop-color="#0777aa"/>
			<stop offset=".5" stop-color="#0877ab"/>
			<stop offset=".51" stop-color="#0978ad"/>
			<stop offset=".52" stop-color="#0679ad"/>
			<stop offset=".53" stop-color="#077aae"/>
			<stop offset=".54" stop-color="#057ab0"/>
			<stop offset=".55" stop-color="#0a7bb0"/>
			<stop offset=".56" stop-color="#067cb1"/>
			<stop offset=".57" stop-color="#057cb3"/>
			<stop offset=".58" stop-color="#067db4"/>
			<stop offset=".59" stop-color="#0a7eb4"/>
			<stop offset=".6" stop-color="#047fb6"/>
			<stop offset=".61" stop-color="#067fb6"/>
			<stop offset=".62" stop-color="#0680b8"/>
			<stop offset=".63" stop-color="#0181b8"/>
			<stop offset=".64" stop-color="#0280b9"/>
			<stop offset=".65" stop-color="#0482ba"/>
			<stop offset=".66" stop-color="#0683bd"/>
			<stop offset=".67" stop-color="#0283bc"/>
			<stop offset=".68" stop-color="#0084bd"/>
			<stop offset=".69" stop-color="#0485be"/>
			<stop offset=".7" stop-color="#0785c0"/>
			<stop offset=".71" stop-color="#0785c0"/>
			<stop offset=".72" stop-color="#0187c1"/>
			<stop offset=".73" stop-color="#0487c3"/>
			<stop offset=".74" stop-color="#0088c4"/>
			<stop offset=".75" stop-color="#0088c4"/>
			<stop offset=".76" stop-color="#0289c5"/>
			<stop offset=".77" stop-color="#058ac7"/>
			<stop offset=".78" stop-color="#038ac8"/>
			<stop offset=".79" stop-color="#098bc8"/>
			<stop offset=".8" stop-color="#0a8cca"/>
			<stop offset=".81" stop-color="#038dcb"/>
			<stop offset=".82" stop-color="#048dcc"/>
			<stop offset=".83" stop-color="#098ecc"/>
			<stop offset=".84" stop-color="#0c8fcd"/>
			<stop offset=".85" stop-color="#0a8fcf"/>
			<stop offset=".86" stop-color="#0c90d0"/>
			<stop offset=".87" stop-color="#0b91cf"/>
			<stop offset=".88" stop-color="#0c92d2"/>
			<stop offset=".89" stop-color="#0e92d1"/>
			<stop offset=".9" stop-color="#1193d2"/>
			<stop offset=".91" stop-color="#0c94d3"/>
			<stop offset=".92" stop-color="#0e94d2"/>
			<stop offset=".93" stop-color="#1195d3"/>
			<stop offset=".94" stop-color="#0f95d4"/>
			<stop offset=".95" stop-color="#1197d5"/>
			<stop offset=".96" stop-color="#1197d5"/>
			<stop offset=".97" stop-color="#1597d5"/>
			<stop offset=".98" stop-color="#1198d6"/>
			<stop offset=".99" stop-color="#1998d6"/>
			<stop offset="1" stop-color="#1599d6"/>
		</linearGradient>
		<linearGradient id="g4" x2="1" gradientUnits="userSpaceOnUse" gradientTransform="matrix(396,19.06,-18.487,384.103,-51.6,129.25)">
			<stop offset="0" stop-color="#025478"/>
			<stop offset=".02" stop-color="#05547a"/>
			<stop offset=".03" stop-color="#02567b"/>
			<stop offset=".04" stop-color="#03567c"/>
			<stop offset=".05" stop-color="#03577d"/>
			<stop offset=".06" stop-color="#01587e"/>
			<stop offset=".07" stop-color="#03597f"/>
			<stop offset=".08" stop-color="#055880"/>
			<stop offset=".09" stop-color="#055a81"/>
			<stop offset=".1" stop-color="#065b82"/>
			<stop offset=".11" stop-color="#075b83"/>
			<stop offset=".12" stop-color="#055c84"/>
			<stop offset=".13" stop-color="#075c85"/>
			<stop offset=".14" stop-color="#085d85"/>
			<stop offset=".15" stop-color="#045d86"/>
			<stop offset=".16" stop-color="#055f88"/>
			<stop offset=".17" stop-color="#075f88"/>
			<stop offset=".18" stop-color="#08608a"/>
			<stop offset=".19" stop-color="#08618b"/>
			<stop offset=".2" stop-color="#08628c"/>
			<stop offset=".21" stop-color="#06638d"/>
			<stop offset=".22" stop-color="#07638e"/>
			<stop offset=".23" stop-color="#036490"/>
			<stop offset=".24" stop-color="#056590"/>
			<stop offset=".25" stop-color="#066591"/>
			<stop offset=".26" stop-color="#016692"/>
			<stop offset=".27" stop-color="#036794"/>
			<stop offset=".28" stop-color="#046894"/>
			<stop offset=".29" stop-color="#056896"/>
			<stop offset=".3" stop-color="#026997"/>
			<stop offset=".31" stop-color="#026a99"/>
			<stop offset=".32" stop-color="#026a99"/>
			<stop offset=".33" stop-color="#056b99"/>
			<stop offset=".34" stop-color="#076c9b"/>
			<stop offset=".35" stop-color="#026d9d"/>
			<stop offset=".36" stop-color="#026d9d"/>
			<stop offset=".37" stop-color="#056e9d"/>
			<stop offset=".38" stop-color="#076f9f"/>
			<stop offset=".39" stop-color="#066fa0"/>
			<stop offset=".4" stop-color="#0b70a0"/>
			<stop offset=".41" stop-color="#0771a2"/>
			<stop offset=".42" stop-color="#0872a3"/>
			<stop offset=".43" stop-color="#0972a4"/>
			<stop offset=".44" stop-color="#0b73a4"/>
			<stop offset=".45" stop-color="#0774a6"/>
			<stop offset=".46" stop-color="#0974a7"/>
			<stop offset=".47" stop-color="#0375a8"/>
			<stop offset=".48" stop-color="#0376a9"/>
			<stop offset=".49" stop-color="#0777aa"/>
			<stop offset=".5" stop-color="#0877ab"/>
			<stop offset=".51" stop-color="#0978ad"/>
			<stop offset=".52" stop-color="#0679ad"/>
			<stop offset=".53" stop-color="#077aae"/>
			<stop offset=".54" stop-color="#057ab0"/>
			<stop offset=".55" stop-color="#0a7bb0"/>
			<stop offset=".56" stop-color="#067cb1"/>
			<stop offset=".57" stop-color="#057cb3"/>
			<stop offset=".58" stop-color="#067db4"/>
			<stop offset=".59" stop-color="#0a7eb4"/>
			<stop offset=".6" stop-color="#047fb6"/>
			<stop offset=".61" stop-color="#067fb6"/>
			<stop offset=".62" stop-color="#0680b8"/>
			<stop offset=".63" stop-color="#0181b8"/>
			<stop offset=".64" stop-color="#0280b9"/>
			<stop offset=".65" stop-color="#0482ba"/>
			<stop offset=".66" stop-color="#0683bd"/>
			<stop offset=".67" stop-color="#0283bc"/>
			<stop offset=".68" stop-color="#0084bd"/>
			<stop offset=".69" stop-color="#0485be"/>
			<stop offset=".7" stop-color="#0785c0"/>
			<stop offset=".71" stop-color="#0785c0"/>
			<stop offset=".72" stop-color="#0187c1"/>
			<stop offset=".73" stop-color="#0487c3"/>
			<stop offset=".74" stop-color="#0088c4"/>
			<stop offset=".75" stop-color="#0088c4"/>
			<stop offset=".76" stop-color="#0289c5"/>
			<stop offset=".77" stop-color="#058ac7"/>
			<stop offset=".78" stop-color="#038ac8"/>
			<stop offset=".79" stop-color="#098bc8"/>
			<stop offset=".8" stop-color="#0a8cca"/>
			<stop offset=".81" stop-color="#038dcb"/>
			<stop offset=".82" stop-color="#048dcc"/>
			<stop offset=".83" stop-color="#098ecc"/>
			<stop offset=".84" stop-color="#0c8fcd"/>
			<stop offset=".85" stop-color="#0a8fcf"/>
			<stop offset=".86" stop-color="#0c90d0"/>
			<stop offset=".87" stop-color="#0b91cf"/>
			<stop offset=".88" stop-color="#0c92d2"/>
			<stop offset=".89" stop-color="#0e92d1"/>
			<stop offset=".9" stop-color="#1193d2"/>
			<stop offset=".91" stop-color="#0c94d3"/>
			<stop offset=".92" stop-color="#0e94d2"/>
			<stop offset=".93" stop-color="#1195d3"/>
			<stop offset=".94" stop-color="#0f95d4"/>
			<stop offset=".95" stop-color="#1197d5"/>
			<stop offset=".96" stop-color="#1197d5"/>
			<stop offset=".97" stop-color="#1597d5"/>
			<stop offset=".98" stop-color="#1198d6"/>
			<stop offset=".99" stop-color="#1998d6"/>
			<stop offset="1" stop-color="#1599d6"/>
		</linearGradient>
		<linearGradient id="g5" x2="1" gradientUnits="userSpaceOnUse" gradientTransform="matrix(396,19.06,-28.447,591.033,-58.75,277.87)">
			<stop offset="0" stop-color="#025478"/>
			<stop offset=".02" stop-color="#05547a"/>
			<stop offset=".03" stop-color="#02567b"/>
			<stop offset=".04" stop-color="#03567c"/>
			<stop offset=".05" stop-color="#03577d"/>
			<stop offset=".06" stop-color="#01587e"/>
			<stop offset=".07" stop-color="#03597f"/>
			<stop offset=".08" stop-color="#055880"/>
			<stop offset=".09" stop-color="#055a81"/>
			<stop offset=".1" stop-color="#065b82"/>
			<stop offset=".11" stop-color="#075b83"/>
			<stop offset=".12" stop-color="#055c84"/>
			<stop offset=".13" stop-color="#075c85"/>
			<stop offset=".14" stop-color="#085d85"/>
			<stop offset=".15" stop-color="#045d86"/>
			<stop offset=".16" stop-color="#055f88"/>
			<stop offset=".17" stop-color="#075f88"/>
			<stop offset=".18" stop-color="#08608a"/>
			<stop offset=".19" stop-color="#08618b"/>
			<stop offset=".2" stop-color="#08628c"/>
			<stop offset=".21" stop-color="#06638d"/>
			<stop offset=".22" stop-color="#07638e"/>
			<stop offset=".23" stop-color="#036490"/>
			<stop offset=".24" stop-color="#056590"/>
			<stop offset=".25" stop-color="#066591"/>
			<stop offset=".26" stop-color="#016692"/>
			<stop offset=".27" stop-color="#036794"/>
			<stop offset=".28" stop-color="#046894"/>
			<stop offset=".29" stop-color="#056896"/>
			<stop offset=".3" stop-color="#026997"/>
			<stop offset=".31" stop-color="#026a99"/>
			<stop offset=".32" stop-color="#026a99"/>
			<stop offset=".33" stop-color="#056b99"/>
			<stop offset=".34" stop-color="#076c9b"/>
			<stop offset=".35" stop-color="#026d9d"/>
			<stop offset=".36" stop-color="#026d9d"/>
			<stop offset=".37" stop-color="#056e9d"/>
			<stop offset=".38" stop-color="#076f9f"/>
			<stop offset=".39" stop-color="#066fa0"/>
			<stop offset=".4" stop-color="#0b70a0"/>
			<stop offset=".41" stop-color="#0771a2"/>
			<stop offset=".42" stop-color="#0872a3"/>
			<stop offset=".43" stop-color="#0972a4"/>
			<stop offset=".44" stop-color="#0b73a4"/>
			<stop offset=".45" stop-color="#0774a6"/>
			<stop offset=".46" stop-color="#0974a7"/>
			<stop offset=".47" stop-color="#0375a8"/>
			<stop offset=".48" stop-color="#0376a9"/>
			<stop offset=".49" stop-color="#0777aa"/>
			<stop offset=".5" stop-color="#0877ab"/>
			<stop offset=".51" stop-color="#0978ad"/>
			<stop offset=".52" stop-color="#0679ad"/>
			<stop offset=".53" stop-color="#077aae"/>
			<stop offset=".54" stop-color="#057ab0"/>
			<stop offset=".55" stop-color="#0a7bb0"/>
			<stop offset=".56" stop-color="#067cb1"/>
			<stop offset=".57" stop-color="#057cb3"/>
			<stop offset=".58" stop-color="#067db4"/>
			<stop offset=".59" stop-color="#0a7eb4"/>
			<stop offset=".6" stop-color="#047fb6"/>
			<stop offset=".61" stop-color="#067fb6"/>
			<stop offset=".62" stop-color="#0680b8"/>
			<stop offset=".63" stop-color="#0181b8"/>
			<stop offset=".64" stop-color="#0280b9"/>
			<stop offset=".65" stop-color="#0482ba"/>
			<stop offset=".66" stop-color="#0683bd"/>
			<stop offset=".67" stop-color="#0283bc"/>
			<stop offset=".68" stop-color="#0084bd"/>
			<stop offset=".69" stop-color="#0485be"/>
			<stop offset=".7" stop-color="#0785c0"/>
			<stop offset=".71" stop-color="#0785c0"/>
			<stop offset=".72" stop-color="#0187c1"/>
			<stop offset=".73" stop-color="#0487c3"/>
			<stop offset=".74" stop-color="#0088c4"/>
			<stop offset=".75" stop-color="#0088c4"/>
			<stop offset=".76" stop-color="#0289c5"/>
			<stop offset=".77" stop-color="#058ac7"/>
			<stop offset=".78" stop-color="#038ac8"/>
			<stop offset=".79" stop-color="#098bc8"/>
			<stop offset=".8" stop-color="#0a8cca"/>
			<stop offset=".81" stop-color="#038dcb"/>
			<stop offset=".82" stop-color="#048dcc"/>
			<stop offset=".83" stop-color="#098ecc"/>
			<stop offset=".84" stop-color="#0c8fcd"/>
			<stop offset=".85" stop-color="#0a8fcf"/>
			<stop offset=".86" stop-color="#0c90d0"/>
			<stop offset=".87" stop-color="#0b91cf"/>
			<stop offset=".88" stop-color="#0c92d2"/>
			<stop offset=".89" stop-color="#0e92d1"/>
			<stop offset=".9" stop-color="#1193d2"/>
			<stop offset=".91" stop-color="#0c94d3"/>
			<stop offset=".92" stop-color="#0e94d2"/>
			<stop offset=".93" stop-color="#1195d3"/>
			<stop offset=".94" stop-color="#0f95d4"/>
			<stop offset=".95" stop-color="#1197d5"/>
			<stop offset=".96" stop-color="#1197d5"/>
			<stop offset=".97" stop-color="#1597d5"/>
			<stop offset=".98" stop-color="#1198d6"/>
			<stop offset=".99" stop-color="#1998d6"/>
			<stop offset="1" stop-color="#1599d6"/>
		</linearGradient>
		<linearGradient id="g6" x2="1" gradientUnits="userSpaceOnUse" gradientTransform="matrix(396,19.06,-10.183,211.572,-50.26,101.33)">
			<stop offset="0" stop-color="#025478"/>
			<stop offset=".02" stop-color="#05547a"/>
			<stop offset=".03" stop-color="#02567b"/>
			<stop offset=".04" stop-color="#03567c"/>
			<stop offset=".05" stop-color="#03577d"/>
			<stop offset=".06" stop-color="#01587e"/>
			<stop offset=".07" stop-color="#03597f"/>
			<stop offset=".08" stop-color="#055880"/>
			<stop offset=".09" stop-color="#055a81"/>
			<stop offset=".1" stop-color="#065b82"/>
			<stop offset=".11" stop-color="#075b83"/>
			<stop offset=".12" stop-color="#055c84"/>
			<stop offset=".13" stop-color="#075c85"/>
			<stop offset=".14" stop-color="#085d85"/>
			<stop offset=".15" stop-color="#045d86"/>
			<stop offset=".16" stop-color="#055f88"/>
			<stop offset=".17" stop-color="#075f88"/>
			<stop offset=".18" stop-color="#08608a"/>
			<stop offset=".19" stop-color="#08618b"/>
			<stop offset=".2" stop-color="#08628c"/>
			<stop offset=".21" stop-color="#06638d"/>
			<stop offset=".22" stop-color="#07638e"/>
			<stop offset=".23" stop-color="#036490"/>
			<stop offset=".24" stop-color="#056590"/>
			<stop offset=".25" stop-color="#066591"/>
			<stop offset=".26" stop-color="#016692"/>
			<stop offset=".27" stop-color="#036794"/>
			<stop offset=".28" stop-color="#046894"/>
			<stop offset=".29" stop-color="#056896"/>
			<stop offset=".3" stop-color="#026997"/>
			<stop offset=".31" stop-color="#026a99"/>
			<stop offset=".32" stop-color="#026a99"/>
			<stop offset=".33" stop-color="#056b99"/>
			<stop offset=".34" stop-color="#076c9b"/>
			<stop offset=".35" stop-color="#026d9d"/>
			<stop offset=".36" stop-color="#026d9d"/>
			<stop offset=".37" stop-color="#056e9d"/>
			<stop offset=".38" stop-color="#076f9f"/>
			<stop offset=".39" stop-color="#066fa0"/>
			<stop offset=".4" stop-color="#0b70a0"/>
			<stop offset=".41" stop-color="#0771a2"/>
			<stop offset=".42" stop-color="#0872a3"/>
			<stop offset=".43" stop-color="#0972a4"/>
			<stop offset=".44" stop-color="#0b73a4"/>
			<stop offset=".45" stop-color="#0774a6"/>
			<stop offset=".46" stop-color="#0974a7"/>
			<stop offset=".47" stop-color="#0375a8"/>
			<stop offset=".48" stop-color="#0376a9"/>
			<stop offset=".49" stop-color="#0777aa"/>
			<stop offset=".5" stop-color="#0877ab"/>
			<stop offset=".51" stop-color="#0978ad"/>
			<stop offset=".52" stop-color="#0679ad"/>
			<stop offset=".53" stop-color="#077aae"/>
			<stop offset=".54" stop-color="#057ab0"/>
			<stop offset=".55" stop-color="#0a7bb0"/>
			<stop offset=".56" stop-color="#067cb1"/>
			<stop offset=".57" stop-color="#057cb3"/>
			<stop offset=".58" stop-color="#067db4"/>
			<stop offset=".59" stop-color="#0a7eb4"/>
			<stop offset=".6" stop-color="#047fb6"/>
			<stop offset=".61" stop-color="#067fb6"/>
			<stop offset=".62" stop-color="#0680b8"/>
			<stop offset=".63" stop-color="#0181b8"/>
			<stop offset=".64" stop-color="#0280b9"/>
			<stop offset=".65" stop-color="#0482ba"/>
			<stop offset=".66" stop-color="#0683bd"/>
			<stop offset=".67" stop-color="#0283bc"/>
			<stop offset=".68" stop-color="#0084bd"/>
			<stop offset=".69" stop-color="#0485be"/>
			<stop offset=".7" stop-color="#0785c0"/>
			<stop offset=".71" stop-color="#0785c0"/>
			<stop offset=".72" stop-color="#0187c1"/>
			<stop offset=".73" stop-color="#0487c3"/>
			<stop offset=".74" stop-color="#0088c4"/>
			<stop offset=".75" stop-color="#0088c4"/>
			<stop offset=".76" stop-color="#0289c5"/>
			<stop offset=".77" stop-color="#058ac7"/>
			<stop offset=".78" stop-color="#038ac8"/>
			<stop offset=".79" stop-color="#098bc8"/>
			<stop offset=".8" stop-color="#0a8cca"/>
			<stop offset=".81" stop-color="#038dcb"/>
			<stop offset=".82" stop-color="#048dcc"/>
			<stop offset=".83" stop-color="#098ecc"/>
			<stop offset=".84" stop-color="#0c8fcd"/>
			<stop offset=".85" stop-color="#0a8fcf"/>
			<stop offset=".86" stop-color="#0c90d0"/>
			<stop offset=".87" stop-color="#0b91cf"/>
			<stop offset=".88" stop-color="#0c92d2"/>
			<stop offset=".89" stop-color="#0e92d1"/>
			<stop offset=".9" stop-color="#1193d2"/>
			<stop offset=".91" stop-color="#0c94d3"/>
			<stop offset=".92" stop-color="#0e94d2"/>
			<stop offset=".93" stop-color="#1195d3"/>
			<stop offset=".94" stop-color="#0f95d4"/>
			<stop offset=".95" stop-color="#1197d5"/>
			<stop offset=".96" stop-color="#1197d5"/>
			<stop offset=".97" stop-color="#1597d5"/>
			<stop offset=".98" stop-color="#1198d6"/>
			<stop offset=".99" stop-color="#1998d6"/>
			<stop offset="1" stop-color="#1599d6"/>
		</linearGradient>
		<linearGradient id="g7" x2="1" gradientUnits="userSpaceOnUse" gradientTransform="matrix(396,19.06,-18.466,383.66,-51.72,131.66)">
			<stop offset="0" stop-color="#025478"/>
			<stop offset=".02" stop-color="#05547a"/>
			<stop offset=".03" stop-color="#02567b"/>
			<stop offset=".04" stop-color="#03567c"/>
			<stop offset=".05" stop-color="#03577d"/>
			<stop offset=".06" stop-color="#01587e"/>
			<stop offset=".07" stop-color="#03597f"/>
			<stop offset=".08" stop-color="#055880"/>
			<stop offset=".09" stop-color="#055a81"/>
			<stop offset=".1" stop-color="#065b82"/>
			<stop offset=".11" stop-color="#075b83"/>
			<stop offset=".12" stop-color="#055c84"/>
			<stop offset=".13" stop-color="#075c85"/>
			<stop offset=".14" stop-color="#085d85"/>
			<stop offset=".15" stop-color="#045d86"/>
			<stop offset=".16" stop-color="#055f88"/>
			<stop offset=".17" stop-color="#075f88"/>
			<stop offset=".18" stop-color="#08608a"/>
			<stop offset=".19" stop-color="#08618b"/>
			<stop offset=".2" stop-color="#08628c"/>
			<stop offset=".21" stop-color="#06638d"/>
			<stop offset=".22" stop-color="#07638e"/>
			<stop offset=".23" stop-color="#036490"/>
			<stop offset=".24" stop-color="#056590"/>
			<stop offset=".25" stop-color="#066591"/>
			<stop offset=".26" stop-color="#016692"/>
			<stop offset=".27" stop-color="#036794"/>
			<stop offset=".28" stop-color="#046894"/>
			<stop offset=".29" stop-color="#056896"/>
			<stop offset=".3" stop-color="#026997"/>
			<stop offset=".31" stop-color="#026a99"/>
			<stop offset=".32" stop-color="#026a99"/>
			<stop offset=".33" stop-color="#056b99"/>
			<stop offset=".34" stop-color="#076c9b"/>
			<stop offset=".35" stop-color="#026d9d"/>
			<stop offset=".36" stop-color="#026d9d"/>
			<stop offset=".37" stop-color="#056e9d"/>
			<stop offset=".38" stop-color="#076f9f"/>
			<stop offset=".39" stop-color="#066fa0"/>
			<stop offset=".4" stop-color="#0b70a0"/>
			<stop offset=".41" stop-color="#0771a2"/>
			<stop offset=".42" stop-color="#0872a3"/>
			<stop offset=".43" stop-color="#0972a4"/>
			<stop offset=".44" stop-color="#0b73a4"/>
			<stop offset=".45" stop-color="#0774a6"/>
			<stop offset=".46" stop-color="#0974a7"/>
			<stop offset=".47" stop-color="#0375a8"/>
			<stop offset=".48" stop-color="#0376a9"/>
			<stop offset=".49" stop-color="#0777aa"/>
			<stop offset=".5" stop-color="#0877ab"/>
			<stop offset=".51" stop-color="#0978ad"/>
			<stop offset=".52" stop-color="#0679ad"/>
			<stop offset=".53" stop-color="#077aae"/>
			<stop offset=".54" stop-color="#057ab0"/>
			<stop offset=".55" stop-color="#0a7bb0"/>
			<stop offset=".56" stop-color="#067cb1"/>
			<stop offset=".57" stop-color="#057cb3"/>
			<stop offset=".58" stop-color="#067db4"/>
			<stop offset=".59" stop-color="#0a7eb4"/>
			<stop offset=".6" stop-color="#047fb6"/>
			<stop offset=".61" stop-color="#067fb6"/>
			<stop offset=".62" stop-color="#0680b8"/>
			<stop offset=".63" stop-color="#0181b8"/>
			<stop offset=".64" stop-color="#0280b9"/>
			<stop offset=".65" stop-color="#0482ba"/>
			<stop offset=".66" stop-color="#0683bd"/>
			<stop offset=".67" stop-color="#0283bc"/>
			<stop offset=".68" stop-color="#0084bd"/>
			<stop offset=".69" stop-color="#0485be"/>
			<stop offset=".7" stop-color="#0785c0"/>
			<stop offset=".71" stop-color="#0785c0"/>
			<stop offset=".72" stop-color="#0187c1"/>
			<stop offset=".73" stop-color="#0487c3"/>
			<stop offset=".74" stop-color="#0088c4"/>
			<stop offset=".75" stop-color="#0088c4"/>
			<stop offset=".76" stop-color="#0289c5"/>
			<stop offset=".77" stop-color="#058ac7"/>
			<stop offset=".78" stop-color="#038ac8"/>
			<stop offset=".79" stop-color="#098bc8"/>
			<stop offset=".8" stop-color="#0a8cca"/>
			<stop offset=".81" stop-color="#038dcb"/>
			<stop offset=".82" stop-color="#048dcc"/>
			<stop offset=".83" stop-color="#098ecc"/>
			<stop offset=".84" stop-color="#0c8fcd"/>
			<stop offset=".85" stop-color="#0a8fcf"/>
			<stop offset=".86" stop-color="#0c90d0"/>
			<stop offset=".87" stop-color="#0b91cf"/>
			<stop offset=".88" stop-color="#0c92d2"/>
			<stop offset=".89" stop-color="#0e92d1"/>
			<stop offset=".9" stop-color="#1193d2"/>
			<stop offset=".91" stop-color="#0c94d3"/>
			<stop offset=".92" stop-color="#0e94d2"/>
			<stop offset=".93" stop-color="#1195d3"/>
			<stop offset=".94" stop-color="#0f95d4"/>
			<stop offset=".95" stop-color="#1197d5"/>
			<stop offset=".96" stop-color="#1197d5"/>
			<stop offset=".97" stop-color="#1597d5"/>
			<stop offset=".98" stop-color="#1198d6"/>
			<stop offset=".99" stop-color="#1998d6"/>
			<stop offset="1" stop-color="#1599d6"/>
		</linearGradient>
	</defs>
	<style>
		.s0 { fill: url(#g1) } 
		.s1 { fill: url(#g2) } 
		.s2 { fill: url(#g3) } 
		.s3 { fill: url(#g4) } 
		.s4 { fill: url(#g5) } 
		.s5 { fill: url(#g6) } 
		.s6 { fill: url(#g7) } 
		.s7 { fill: #0f92cd } 
	</style>
	<g>
		<path fill-rule="evenodd" class="s0" d="m388.5 199.2c-3.2 2.9-6.6 4.3-11.4 4.8-5.7 0.4-11.7-2-15.5-6.2-1.1-1.3-3.9-6.5-3.9-7.3 0-0.7-1.1-0.6-4.9 0.8-7.4 2.8-12.6 7.2-20.2 17-8.1 10.4-14.4 15.3-24.5 18.7-10.5 3.4-24 3.7-33.9 0.6-6.4-2.1-12.2-5.8-20.1-12.5-2.2-2-5.5-4.5-7-5.6-4.7-3.4-6.1-7.1-4.1-11.1 1.6-3.1 3.7-4.3 7.7-4.4 3.1 0 4.5 0.7 7.8 3.9 3.8 4 13.3 11.7 16.6 13.5 4.2 2.6 9 3.5 15.7 3.7 6.6 0 9.9-0.7 15.4-3.4 4.8-2.2 9-5.9 14.5-12.6 8.4-10.3 13.5-15.2 19-18.3 4.6-2.8 11.5-4.9 17.8-5.6 3.2-0.5 3.7-0.6 5.4-2.1 2.4-2 6.2-3.8 9.1-4.3 3.4-0.5 4.8-0.5 8.1 0.2 5.5 1.3 9.8 4.8 12.2 9.5 3.7 7.5 2.3 15.3-3.8 20.7zm-12.8-7.9q0 0 0 0 0 0 0 0zm0 0c3.5 0 5.3-1.8 5.3-5.2 0-1.2-0.4-1.9-1.5-3.1-1.4-1.4-2-1.5-3.8-1.5-1.9 0-2.4 0.1-3.6 1.4-1.1 1.1-1.4 1.8-1.4 3.4 0 1.7 0.3 2.2 1.7 3.6 1.2 1.1 1.9 1.4 3.3 1.4z"/>
		<path fill-rule="evenodd" class="s1" d="m104.8 222.1c-5.3-3.5-8.3-6.4-13.9-13.8-7.8-9.9-13.4-14.6-20.6-17.2-4.3-1.5-4.6-1.5-5.6 1.1-1.8 4.8-4.9 7.8-10 10.2-2.8 1.3-3.4 1.4-7.7 1.4-4.4 0-5-0.1-7.8-1.5-6-2.8-9.7-8.1-10.1-14.6-0.3-5.6 1.2-9.7 5-13.7 2.7-2.6 5.7-4.3 9.3-5 3.4-0.7 4-0.7 7.2-0.2 3.7 0.6 7.3 2.2 9.7 4.4 2 1.7 2.3 1.8 5.8 2.1 4.8 0.3 9.7 1.5 14.1 3.7 7.6 3.3 12.2 7.4 21 18.1 3.7 4.6 8 9.3 9.4 10.4 9.7 7.9 25.7 10 36.6 4.9 3.9-1.8 13.7-9.5 17.7-13.9 2.9-3.2 4.2-4.1 6.9-4.6 4.9-0.9 10.4 4.3 9.5 9.1-0.4 2.3-2.3 4.9-4.3 6-1 0.5-3.7 2.6-6.1 4.7-8 7.1-12.6 10.4-18 12.6-14.9 5.9-35.2 4.1-48.1-4.2zm-58.8-40.7c-0.6 0-1.7 0.8-2.6 1.8-1.3 1.4-1.4 1.8-1.3 3.6 0.8 5.5 8.5 6.4 10.2 1.2 1.3-3.7-2.3-7.5-6.3-6.6z"/>
		<path fill-rule="evenodd" class="s2" d="m324.6 339.2c13.8 2.7 19.6 18.3 10.7 28.9-4.4 5.5-12.8 7.8-20.1 5.5-11.6-3.6-16.2-17-9.5-27.5l1.6-2.6-0.9-2.2c-3.2-9-3.9-9.8-23-27-10.9-9.7-18.7-17.6-22.1-21.9-4.8-6.1-8.2-14.6-8.8-22.2-0.7-10.1-3-15.6-10.8-25.5-7.2-8.8-8.2-9.9-8.4-9.9-0.3 0-0.3 4.5 0.1 40.4 0.1 14.5 0.1 15.6 1.1 18.7 2.4 7.6 7.4 13.8 16.5 21l4.2 3.2 2.1-0.8c1.6-0.7 3.6-0.9 6.5-0.9 3.8 0 4.5 0.1 7.3 1.4 6.1 3 9.7 7.6 10.7 14.1 0.9 5-1 10.5-4.6 14.3-7.5 7.6-20.8 7.2-27.6-0.7-3.2-3.8-4.4-6.9-4.5-11.8v-4.1l-3.9-3.1c-11.6-9.2-17.5-17-21-27.1-2.8-8-2.8-7.4-2.8-50.9 0-26 0.1-40.3 0.5-41.4 0.6-2.1 2.6-4.4 4.4-5.1 4.8-2.1 9.9 0.7 11.7 6.3q0.8 2.4 4.5 7.2c8 10.1 18 23.6 19.3 26.3 0.4 0.7 1.7 2.4 2.6 3.6 3.7 4.8 6.1 12.3 7.5 23.1 1 6.3 2.3 10.2 4.5 13.6 1.8 2.6 14.6 15.1 30.7 29.5 3.5 3.1 7.6 7.2 9.1 9.2 3 3.6 7.5 11.2 8.9 15.6 0.8 2.2 1 2.2 3.5 2.8zm-65.4-2.7c1 1.8 2.4 2.7 4.5 2.7 2.7 0 5.1-2.3 5.1-4.8-0.1-2.1-0.9-3.5-2.7-4.8-1.8-1.1-3.8-0.9-5.3 0.2-2.4 1.9-3 4.3-1.6 6.7zm62.1 25.7c2.9 0 5.2-2.5 5.2-5.6 0-1.3-0.3-2-1.6-3.2-1.2-1.3-1.8-1.6-3.6-1.6-1.7 0-2.4 0.3-3.6 1.3-1.6 1.7-2.2 3.2-1.4 5.3 0.6 1.9 3.3 3.8 5 3.8z"/>
		<path class="s3" d="m248.1 146.8c2.6-8.6-4.8-16.7-13.8-15.1-6.8 1.3-11.1 8.3-9.2 14.8 1.4 4.9 7.5 8.8 12.6 8.1 4.8-0.8 9.3-4.2 10.4-7.8z"/>
		<path fill-rule="evenodd" class="s4" d="m193.9 202.4c4.5-2.6 10.4-0.3 11.8 4.7 0.4 1.2 0.5 14.2 0.4 42.8l-0.1 41.2-1.3 4.1c-3.8 12.7-11.7 23.6-22.9 31.9l-3.3 2.4-0.3 4.5c-0.2 3.8-0.5 5.1-1.6 7.6-5.5 11.2-21.3 13.7-30 4.6-3.7-3.8-5-6.7-5-11.9 0-4.5 1.2-7.7 3.7-11 2-2.4 6.5-5.5 9.3-6.3 2.9-0.8 9-0.7 11.8 0.3l2.4 0.8 4.1-3.4c8.9-7.3 13.4-12.8 15.6-19.1 2.1-6 2.4-9.7 2.3-36.1l-0.2-24.7-3.1 3.5c-5.6 6.6-11.8 14.7-13.4 18-1.9 4.1-2.8 7.6-3.2 12.9-0.5 8.3-3.5 16.3-8.3 22.9-3 3.8-10.3 11.1-20.8 20.7-18.7 16.8-22 20.5-24.9 28.4l-1.1 2.8 1.6 2.4c3.3 4.7 4.3 9.8 2.6 14.9-2.6 8-9.6 13.2-18.2 13.2-4.2 0-7.3-1-10.7-3.3-9-6.4-10-18.5-2.2-26.8 2.4-2.7 6.2-4.6 10.1-5.2 1.6-0.3 2.8-0.7 2.8-1 0-1.3 3.3-8.1 5.5-11.7 3.3-5.3 6.4-8.5 22.3-23.3 20.1-18.7 21.1-19.8 23-23.5 2.2-3.8 3-7 3.7-14.2 1.1-10.9 2.8-14.4 13.5-29.2 8.5-11.9 11.3-15.7 14.9-20.1q3.7-4.4 4.5-6.7c1.3-3.8 2.6-5.9 4.7-7.1zm-86.4 155.6c0.8-4.3-4.9-7.8-8.6-5.2-2 1.4-2.5 4.1-1.4 6.2 1.1 2.3 3.4 3.5 5.5 3.1 1.8-0.4 4.2-2.4 4.5-4.1zm52.2-29.2c-1.1 0-2 0.4-3.1 1.5-1.4 1.4-1.7 1.9-1.7 3.8 0 2.1 0.2 2.4 1.7 3.7 3 2.5 6.9 1.5 8.2-2 1.1-3.2-1.7-7-5.1-7z"/>
		<path fill-rule="evenodd" class="s5" d="m256 74.5c-5-10-13.4-18.1-23.8-22.7-4.9-2.3-9.4-3.6-15.5-4.3-19.7-2.2-40 9-49 27-3.2 6.5-3.6 8.7-3.6 17.6v7.7l1.8 5.1c1.3 3.5 2.5 6.3 4.3 8.8 3.4 5 3.8 5.9 3.8 7.6 0 1.9-0.5 3-3.1 5.5-5 5.4-6.8 13.4-4.7 21.2 1.7 6.6 4.3 10.6 9.8 14.4 4.7 3.2 5.9 5.2 5.9 8.7 0 3.2-1.7 6-6 10.1-2.8 2.5-4.7 3.8-8.5 5.6-7.7 3.7-10.7 4.2-20.8 4.4-7.6 0-9.1-0.1-12.9-1.1-18.1-4.4-32.7-20.5-36.8-40.2-0.7-3.1-0.8-6.9-1-21.3 0-14.6-0.1-18.1-0.8-21-1.7-7.1-4.5-12.8-9.9-19.9l-2.2-2.9h-3.8q-9.3 0-14.8-7.2c-2.8-3.5-3.8-6.4-3.5-10.8 0.1-4.8 2.1-8.7 5.8-12.4 3.6-3.5 6.7-4.6 12.8-4.7 3.9 0 4.6 0.1 7.4 1.4 5.8 2.6 9.5 7.3 10.7 13.4 0.6 2.9 0 7.5-1.2 9.9-0.9 1.5-0.9 1.4 3.9 8.3 3.8 5.3 5.8 9.2 7.7 14.9 2.9 8.5 2.7 7.6 3.1 28.9 0.3 16.9 0.5 20.3 1.2 22.6 3.5 11.8 10.1 20.1 19.5 24.6 5.1 2.4 8.9 3.3 15.5 3.3 6.6 0 11.1-1.3 15.9-4.7 1.9-1.2 3.4-2.4 3.4-2.4 0-0.1-1.4-1.6-3.2-3.2-4.4-4.1-8.5-10-10.2-14.7-1.1-3.6-1.2-4.4-1.2-10.6 0-7.7 0.8-11.6 3.6-17.4 0.9-2 1.7-3.7 1.7-3.8 0-0.1-0.8-1.7-2-3.4-8.3-13.6-8.6-34.4-0.5-49.9 4.2-8 12.6-17.7 19.9-22.5 9.3-6 18.1-9.4 28.8-10.8 4.2-0.6 16.1-0.1 21.2 0.7 21.3 3.7 40.7 20.1 47.3 39.9 4.8 14.2 3.4 29.7-3.8 42.5l-2 3.6 1.9 4c2.6 5.3 3.3 8.4 3.8 14.4 0.2 5.5-0.6 10.7-2.4 14.9-2 4.8-7.2 11.6-11.4 14.9l-1.7 1.3 1.4 1c2.8 2.1 7 4.4 9.3 5.1 8.4 2.3 18.4 1.4 26-2.7 7.3-4.1 13.4-11.1 16.6-19.4 2.3-5.9 2.6-7.7 2.8-28.3 0.3-19.1 0.5-19.4 1.6-23.6 2.4-8.3 5.3-14 10.7-21.3 3.1-4.4 3.2-4.5 2.5-5.8-0.4-0.7-1-2.5-1.2-4.1-1.2-5.3 0.8-12.1 4.7-15.9 8.1-7.8 21.4-6.9 28.2 2 4.9 6.3 4.8 14.8 0 21.2-3.3 4.3-8.3 6.7-14.4 6.9-4.1 0.2-3.9 0-8.4 6.1-3.4 4.5-6.2 10-7.3 14.6-1 3.4-1.2 5.3-1.4 23.2-0.3 17.7-0.5 19.8-1.3 23q-2.8 10.7-8.9 18.9c-10.1 14-23.2 20.8-40.5 20.6-9 0-13.7-0.9-20.7-4.3-4.4-2.1-5.9-3.1-8.9-6.1-4.2-3.9-5.4-6.3-5.4-9.8-0.2-3.8 0.9-5.3 5.7-8.3 6.8-4.3 11-12.2 11-20.5 0-6.3-1.4-10.1-5.5-14.9-2.8-3.2-3.4-4.2-3.4-6.1 0-1.5 0.7-3.2 3-6.3 2.1-2.8 4-6.7 5.7-11.4 1.2-3.5 1.3-4.2 1.3-11.2 0-8.7-0.6-11.4-3.7-17.9zm84.7-3.6c1 1 1.6 1.1 3.7 1.1 2.1 0 2.5-0.1 3.9-1.5 1.9-1.7 2-3.4 0.7-5.5-1.5-2.5-4.5-3.4-7-2.1-1.2 0.5-1.8 1.3-2.2 2.7-0.9 2.1-0.6 3.6 0.9 5.3zm-256.2-4.2c-0.6-3.2-4.1-5.4-7.2-4.1-1.4 0.6-3.4 3.1-3.4 4.4 0 1.4 1.1 3.5 2.4 4.3 1.1 0.9 4 1 5.6 0.3 1.7-0.6 2.9-3 2.6-4.9z"/>
		<path class="s6" d="m198.9 143.3c-0.1-3.3-0.8-5.4-2.9-7.6-3.7-4.1-9.6-5.1-14.5-2.8-8.2 4-8.3 15.8-0.2 20.2 4.8 2.5 9.6 1.8 13.6-1.7 2.9-2.5 4-4.8 4-8.1z"/>
	</g>
	<g>
		<g>
			<path fill-rule="evenodd" class="s7" d="m465.1 146.9q8.1 4.2 12.5 12 4.4 7.8 4.4 17.9c0 6.7-1.4 12.6-4.4 17.8q-4.4 7.8-12.6 12.1-8.1 4.3-18.8 4.3h-25.7v-68.4h25.7q10.8 0 18.9 4.3zm-5.3 44.5q5.3-5.2 5.3-14.6 0-9.5-5.3-14.7-5.2-5.3-14.7-5.3h-7.9v39.8h7.9q9.5 0 14.7-5.2z"/>
			<path fill-rule="evenodd" class="s7" d="m542.4 187.8h-37.7q0.3 5.1 3.2 7.7 2.9 2.7 7.1 2.7 6.2 0 8.7-5.2h17.7q-1.4 5.3-4.9 9.6-3.6 4.3-8.9 6.7-5.4 2.5-12 2.5-8 0-14.2-3.4-6.3-3.4-9.8-9.8-3.5-6.3-3.5-14.8 0-8.5 3.5-14.8 3.4-6.3 9.7-9.7 6.2-3.4 14.3-3.5c5.4 0 9.9 1.2 14 3.4q6.1 3.3 9.6 9.4 3.5 6.1 3.5 14.3 0 2.4-0.3 4.9zm-16.8-9.3q0-4.2-2.9-6.8-2.9-2.5-7.3-2.5c-2.9 0-5.2 0.8-7.1 2.4q-2.9 2.5-3.5 7h20.8z"/>
			<path class="s7" d="m575.9 195.4l11.8-38.8h17.7l-19.3 54.4h-20.5l-19.3-54.4h17.8z"/>
			<path class="s7" d="m622.8 150.3v22.7h24.7v7.3h-24.7v23.4h27.7v7.3h-36.6v-68h36.6v7.3z"/>
			<path class="s7" d="m735.5 159.2q4.8 2.6 7.7 7.7 2.8 5.2 2.8 12.6v31.5h-8.8v-30.2q0-8-3.9-12.2-4-4.3-10.7-4.3c-4.5 0-8.3 1.5-11 4.4q-4.1 4.5-4.1 12.9v29.4h-8.8v-30.2q0-8-3.9-12.2-4-4.3-10.7-4.3c-4.5 0-8.3 1.5-11 4.4q-4.1 4.5-4.1 12.9v29.4h-8.9v-53.4h8.9v7.7q2.6-4.2 7.1-6.4 4.4-2.3 9.8-2.3 6.7 0 11.9 3 5.1 3 7.7 8.9 2.2-5.7 7.4-8.8 5.1-3.1 11.5-3.1c4.2 0 7.8 0.9 11.1 2.6z"/>
			<path fill-rule="evenodd" class="s7" d="m770.4 159.8q5.2-3.1 12.1-3.1c4.6 0 9.1 1.1 12.9 3.4q5.8 3.4 9.1 9.6 3.4 6.2 3.3 14.4c0 5.4-1.1 10.2-3.3 14.4q-3.3 6.3-9.1 9.9-5.8 3.5-12.9 3.5c-4.7 0-8.5-1.1-12-3.1q-5.2-3.1-8-7.7v35.2h-8.8v-78.7h8.8v9.8q2.7-4.6 7.9-7.6zm26 13.7q-2.5-4.4-6.6-6.8-4.2-2.3-9.1-2.3c-3.3 0-6.3 0.8-9.1 2.4q-4.1 2.4-6.6 6.9-2.5 4.5-2.5 10.5c0 4 0.9 7.5 2.5 10.6q2.5 4.5 6.6 6.9 4.2 2.4 9.1 2.4c3.2 0 6.3-0.8 9.1-2.4q4.1-2.4 6.6-6.9 2.4-4.6 2.4-10.7c0-4.1-0.8-7.6-2.4-10.6z"/>
			<path fill-rule="evenodd" class="s7" d="m829.3 208.5q-6.1-3.4-9.6-9.7-3.5-6.3-3.5-14.6c0-5.5 1.2-10.3 3.6-14.5q3.6-6.3 9.7-9.6 6.1-3.4 13.7-3.4 7.6 0 13.8 3.4 6.1 3.3 9.7 9.6 3.5 6.2 3.5 14.5 0 8.3-3.6 14.6-3.7 6.2-9.9 9.7-6.2 3.4-13.8 3.4c-5.1 0-9.6-1.2-13.6-3.4zm22.5-6.7q4.2-2.2 6.8-6.7 2.6-4.5 2.6-10.9 0-6.5-2.6-10.9-2.5-4.5-6.6-6.7-4.1-2.2-8.9-2.2c-3.1 0-6.2 0.7-8.9 2.2q-4 2.2-6.5 6.7-2.4 4.4-2.4 10.9c0 4.3 0.8 8 2.4 11q2.4 4.5 6.4 6.7 4 2.2 8.7 2.2 4.8 0 9-2.3z"/>
			<path class="s7" d="m953.1 157.6l-16.7 53.4h-9.2l-12.8-42.4-12.9 42.4h-9.1l-16.8-53.4h9.1l12.2 44.8 13.3-44.8h9l13 44.9 12.1-44.9c0 0 8.8 0 8.8 0z"/>
			<path fill-rule="evenodd" class="s7" d="m1010.3 187.6h-42.7q0.5 7.9 5.4 12.3 4.9 4.5 11.9 4.5 5.8 0 9.6-2.7 3.9-2.7 5.4-7.2h9.6q-2.1 7.7-8.6 12.5-6.4 4.9-16 4.9-7.6 0-13.6-3.4-6-3.5-9.4-9.7-3.4-6.3-3.4-14.6 0-8.3 3.3-14.5 3.3-6.3 9.3-9.6 6-3.4 13.8-3.4c5.2 0 9.6 1.1 13.5 3.3q5.8 3.3 9 9.1 3.2 5.8 3.2 13.1 0 2.6-0.3 5.4zm-11.1-15.9q-2.3-3.7-6.1-5.6-3.9-1.9-8.6-1.9-6.7 0-11.4 4.3-4.7 4.3-5.4 11.9h33.7q0-5.1-2.2-8.7z"/>
			<path class="s7" d="m1037.8 159.1q4.4-2.5 10.6-2.5v9.2h-2.4q-14.9 0-14.9 16.2v29h-8.8v-53.4h8.8v8.7q2.4-4.6 6.7-7.2z"/>
		</g>
		<g>
			<path fill-rule="evenodd" class="s7" d="m435.4 259.2q-0.9 1.7-2.9 2.8-2 1.1-5.2 1.1h-4.6v10.3h-4.2v-25.5h8.8q3 0 5 1 2.1 1 3.1 2.7 1 1.8 1 3.9 0 1.9-0.9 3.7zm-4.6-0.6q1.2-1.1 1.2-3.1 0-4.2-4.8-4.2h-4.6v8.3h4.6q2.4 0 3.6-1z"/>
			<path class="s7" d="m447 253.7q1.5-0.9 3.6-0.8v4.3h-1q-2.5 0-3.8 1.2-1.3 1.3-1.2 4.4v10.6h-4.2v-20.2h4.2v2.9q0.9-1.5 2.4-2.4z"/>
			<path fill-rule="evenodd" class="s7" d="m458.1 272.5q-2.3-1.3-3.7-3.7-1.3-2.4-1.3-5.5c0-2.1 0.5-3.9 1.4-5.5q1.3-2.4 3.7-3.7 2.3-1.3 5.2-1.3 3 0 5.3 1.3 2.4 1.3 3.7 3.7 1.4 2.4 1.4 5.5 0 3.1-1.4 5.5-1.4 2.4-3.8 3.7-2.4 1.3-5.3 1.3-2.9 0-5.2-1.3zm8.2-3.1q1.4-0.8 2.3-2.4 0.9-1.5 0.9-3.7 0-2.2-0.9-3.8-0.8-1.5-2.2-2.3-1.4-0.7-3-0.7-1.6 0-3 0.7-1.4 0.8-2.2 2.3-0.8 1.6-0.8 3.8 0 3.2 1.6 5 1.7 1.8 4.3 1.8 1.6 0 3-0.8z"/>
			<path fill-rule="evenodd" class="s7" d="m490.3 253.8q1.8 0.9 2.8 2.3v-2.9h4.2v20.6q0 2.7-1.1 4.9-1.2 2.2-3.4 3.5-2.3 1.2-5.3 1.2-4.2 0-6.9-1.9-2.7-1.9-3.1-5.2h4.2q0.5 1.5 2 2.5 1.6 1 3.7 1 2.6 0 4.1-1.6 1.6-1.5 1.6-4.4v-3.4q-1.1 1.4-2.9 2.4-1.8 1-4.1 1-2.7 0-4.8-1.4-2.2-1.3-3.5-3.7-1.3-2.4-1.3-5.5 0-3 1.3-5.4 1.3-2.3 3.5-3.6 2.1-1.4 4.8-1.4 2.3 0 4.2 1zm1.9 5.8q-0.8-1.5-2.2-2.3-1.4-0.8-3-0.8-1.6 0-3 0.8-1.4 0.8-2.3 2.3-0.9 1.5-0.9 3.6 0 2.1 0.9 3.7 0.9 1.6 2.3 2.4 1.4 0.8 3 0.8 1.6 0 3-0.8 1.4-0.8 2.2-2.4 0.9-1.5 0.9-3.6 0-2.1-0.9-3.7z"/>
			<path class="s7" d="m509.5 253.7q1.5-0.9 3.6-0.8v4.3h-1.1q-2.4 0-3.7 1.2-1.3 1.3-1.3 4.4v10.6h-4.2v-20.2h4.2v2.9q0.9-1.5 2.5-2.4z"/>
			<path fill-rule="evenodd" class="s7" d="m516.8 257.8q1.3-2.3 3.5-3.7 2.2-1.3 4.8-1.3 2.4 0 4.2 1 1.8 0.9 2.8 2.3v-2.9h4.3v20.2h-4.3v-3q-1 1.4-2.9 2.4-1.8 1-4.2 1-2.6 0-4.7-1.4-2.2-1.3-3.5-3.7-1.3-2.4-1.2-5.5-0.1-3 1.2-5.4zm14.5 1.8q-0.9-1.5-2.3-2.3-1.4-0.8-3-0.8-1.6 0-3 0.8-1.4 0.8-2.3 2.3-0.8 1.5-0.8 3.6 0 2.1 0.8 3.7 0.9 1.6 2.3 2.4 1.4 0.8 3 0.8 1.6 0 3-0.8 1.4-0.8 2.3-2.3 0.8-1.6 0.8-3.7 0-2.1-0.8-3.7z"/>
			<path class="s7" d="m570.7 253.8q1.9 1 2.9 3 1.1 1.9 1.1 4.7v11.9h-4.1v-11.3q0-2.7-1.4-4.2-1.3-1.4-3.7-1.4-2.3 0-3.7 1.4-1.4 1.5-1.4 4.2v11.3h-4.2v-11.3q0.1-2.7-1.3-4.2-1.4-1.4-3.7-1.4-2.4 0-3.8 1.4-1.3 1.5-1.3 4.2v11.3h-4.2v-20.2h4.2v2.3q1-1.3 2.6-2 1.6-0.7 3.4-0.7 2.4 0 4.3 1.1 1.9 1 2.9 3 1-1.9 2.9-3 2-1 4.2-1 2.4 0 4.3 0.9z"/>
			<path fill-rule="evenodd" class="s7" d="m598.5 264.9h-15.5q0.2 2.4 1.8 3.9 1.6 1.4 4 1.4 3.4 0 4.7-2.8h4.6q-0.9 2.8-3.4 4.6-2.4 1.8-5.9 1.8-2.9 0-5.2-1.3-2.3-1.3-3.6-3.7-1.3-2.4-1.3-5.5 0-3.1 1.2-5.5 1.3-2.4 3.6-3.6 2.3-1.3 5.3-1.3c1.9 0 3.6 0.4 5.1 1.2q2.2 1.3 3.5 3.5 1.2 2.3 1.2 5.2 0 1.2-0.1 2.1zm-4.3-3.4q0-2.3-1.6-3.7-1.6-1.4-4-1.4-2.2 0-3.7 1.4-1.6 1.3-1.9 3.7z"/>
			<path fill-rule="evenodd" class="s7" d="m615.9 272.5q-2.3-1.3-3.6-3.7-1.4-2.4-1.4-5.5c0-2.1 0.5-3.9 1.4-5.5q1.4-2.4 3.7-3.7 2.4-1.3 5.3-1.3 2.9 0 5.2 1.3 2.4 1.3 3.7 3.7 1.4 2.4 1.4 5.5 0 3.1-1.4 5.5-1.4 2.4-3.8 3.7-2.4 1.3-5.3 1.3-2.9 0-5.2-1.3zm8.2-3.1q1.4-0.8 2.3-2.4 0.9-1.5 0.9-3.7 0-2.2-0.9-3.8-0.8-1.5-2.2-2.3-1.4-0.7-3-0.7-1.6 0-3 0.7-1.4 0.8-2.2 2.3-0.8 1.6-0.8 3.8 0 3.2 1.7 5 1.6 1.8 4.2 1.8 1.6 0 3-0.8z"/>
			<path class="s7" d="m661.6 247.6v5.1h-10.5v5.4h7.9v4.9h-7.9v10.4h-6.3v-25.8c0 0 16.8 0 16.8 0z"/>
			<path class="s7" d="m685.2 252.9v20.5h-6.3v-2.8q-1 1.4-2.6 2.2-1.6 0.9-3.6 0.9-2.4 0-4.2-1.1-1.8-1-2.8-3-1-2-1-4.7v-12h6.3v11.2q0 2 1.1 3.2 1 1.1 2.8 1.1c1.2 0 2.2-0.4 2.9-1.1q1.1-1.2 1.1-3.2v-11.2h6.3z"/>
			<path class="s7" d="m701.1 268.1v5.3h-3.2q-3.4 0-5.3-1.6-1.9-1.7-1.9-5.5v-8.2h-2.5v-5.2h2.5v-5h6.3v5h4.1v5.2h-4.1v8.3q0 0.9 0.4 1.3 0.4 0.4 1.5 0.4h2.2z"/>
			<path class="s7" d="m724.9 252.9v20.5h-6.3v-2.8q-1 1.4-2.6 2.2-1.6 0.9-3.6 0.9-2.4 0-4.2-1.1-1.8-1-2.8-3-1-2-1-4.7v-12h6.3v11.2q0 2 1.1 3.2 1 1.1 2.8 1.1c1.2 0 2.2-0.4 2.9-1.1q1.1-1.2 1.1-3.2v-11.2h6.3z"/>
			<path class="s7" d="m738.4 253.7q1.7-1 3.7-1v6.7h-1.7q-2.4 0-3.6 1-1.1 1-1.2 3.5v9.5h-6.2v-20.5h6.3v3.4q1-1.6 2.7-2.6z"/>
			<path fill-rule="evenodd" class="s7" d="m749 272.4q-2.4-1.2-3.8-3.6-1.3-2.4-1.3-5.6c0-2.2 0.4-4 1.3-5.6q1.4-2.4 3.9-3.7 2.4-1.3 5.4-1.3 3 0 5.5 1.3 2.4 1.3 3.8 3.7 1.4 2.4 1.4 5.6 0 3.1-1.4 5.6-1.5 2.4-3.9 3.6-2.4 1.3-5.5 1.3-3 0-5.4-1.3zm8.5-5.4q1.3-1.4 1.3-3.8 0-2.5-1.3-3.8-1.2-1.3-3-1.3c-1.2 0-2.2 0.4-3 1.3q-1.2 1.3-1.2 3.8c0 1.6 0.4 2.9 1.2 3.7q1.1 1.4 3 1.4 1.8 0 3-1.4z"/>
		</g>
	</g>
</svg>