<?xml version="1.0" encoding="UTF-8"?>
<svg id="Camada_1" data-name="Camada 1" xmlns="http://www.w3.org/2000/svg" xmlns:xlink="http://www.w3.org/1999/xlink" viewBox="0 0 1080 1080">
  <defs>
    <style>
      .cls-1 {
        fill: url(#Gradiente_sem_nome_2);
      }

      .cls-1, .cls-2, .cls-3, .cls-4, .cls-5, .cls-6, .cls-7, .cls-8 {
        stroke-width: 0px;
      }

      .cls-2 {
        fill: url(#Gradiente_sem_nome_2-4);
      }

      .cls-3 {
        fill: url(#Gradiente_sem_nome_2-7);
      }

      .cls-4 {
        fill: url(#Gradiente_sem_nome_2-2);
      }

      .cls-5 {
        fill: url(#Gradiente_sem_nome_2-5);
      }

      .cls-6 {
        fill: #0f92cd;
      }

      .cls-7 {
        fill: url(#Gradiente_sem_nome_2-6);
      }

      .cls-8 {
        fill: url(#Gradiente_sem_nome_2-3);
      }
    </style>
    <linearGradient id="Gradiente_sem_nome_2" data-name="Gradiente sem nome 2" x1="-54.07" y1="507.5" x2="341.93" y2="526.56" gradientUnits="userSpaceOnUse">
      <stop offset="0" stop-color="#025478"/>
      <stop offset="0" stop-color="#025478"/>
      <stop offset=".02" stop-color="#025579"/>
      <stop offset=".02" stop-color="#05547a"/>
      <stop offset=".03" stop-color="#02567b"/>
      <stop offset=".04" stop-color="#03567c"/>
      <stop offset=".05" stop-color="#02577c"/>
      <stop offset=".05" stop-color="#03577d"/>
      <stop offset=".06" stop-color="#01587e"/>
      <stop offset=".07" stop-color="#03597f"/>
      <stop offset=".08" stop-color="#055880"/>
      <stop offset=".09" stop-color="#045a80"/>
      <stop offset=".09" stop-color="#055a81"/>
      <stop offset=".1" stop-color="#065b82"/>
      <stop offset=".11" stop-color="#075b83"/>
      <stop offset=".12" stop-color="#055c84"/>
      <stop offset=".12" stop-color="#055c84"/>
      <stop offset=".13" stop-color="#075c85"/>
      <stop offset=".14" stop-color="#085d85"/>
      <stop offset=".15" stop-color="#045d86"/>
      <stop offset=".16" stop-color="#055f88"/>
      <stop offset=".16" stop-color="#055f88"/>
      <stop offset=".17" stop-color="#075f88"/>
      <stop offset=".18" stop-color="#08608a"/>
      <stop offset=".19" stop-color="#08618b"/>
      <stop offset=".2" stop-color="#04618c"/>
      <stop offset=".2" stop-color="#08628c"/>
      <stop offset=".21" stop-color="#06638d"/>
      <stop offset=".22" stop-color="#07638e"/>
      <stop offset=".23" stop-color="#026490"/>
      <stop offset=".23" stop-color="#036490"/>
      <stop offset=".24" stop-color="#056590"/>
      <stop offset=".25" stop-color="#066591"/>
      <stop offset=".26" stop-color="#016692"/>
      <stop offset=".27" stop-color="#016794"/>
      <stop offset=".27" stop-color="#036794"/>
      <stop offset=".28" stop-color="#046894"/>
      <stop offset=".29" stop-color="#056896"/>
      <stop offset=".3" stop-color="#066997"/>
      <stop offset=".3" stop-color="#026997"/>
      <stop offset=".31" stop-color="#026a99"/>
      <stop offset=".32" stop-color="#026a99"/>
      <stop offset=".33" stop-color="#056b99"/>
      <stop offset=".34" stop-color="#066c9a"/>
      <stop offset=".34" stop-color="#076c9b"/>
      <stop offset=".35" stop-color="#026d9d"/>
      <stop offset=".36" stop-color="#026d9d"/>
      <stop offset=".37" stop-color="#056e9d"/>
      <stop offset=".38" stop-color="#046e9e"/>
      <stop offset=".38" stop-color="#076f9f"/>
      <stop offset=".39" stop-color="#066fa0"/>
      <stop offset=".4" stop-color="#0b70a0"/>
      <stop offset=".41" stop-color="#0571a1"/>
      <stop offset=".41" stop-color="#0771a2"/>
      <stop offset=".42" stop-color="#0872a3"/>
      <stop offset=".43" stop-color="#0972a4"/>
      <stop offset=".44" stop-color="#0b73a4"/>
      <stop offset=".45" stop-color="#0473a5"/>
      <stop offset=".45" stop-color="#0774a6"/>
      <stop offset=".46" stop-color="#0974a7"/>
      <stop offset=".47" stop-color="#0375a8"/>
      <stop offset=".48" stop-color="#0b76a8"/>
      <stop offset=".48" stop-color="#0376a9"/>
      <stop offset=".49" stop-color="#0777aa"/>
      <stop offset=".5" stop-color="#0877ab"/>
      <stop offset=".51" stop-color="#0978ad"/>
      <stop offset=".52" stop-color="#0978ad"/>
      <stop offset=".52" stop-color="#0679ad"/>
      <stop offset=".53" stop-color="#077aae"/>
      <stop offset=".54" stop-color="#057ab0"/>
      <stop offset=".55" stop-color="#0a7bb0"/>
      <stop offset=".55" stop-color="#0a7bb0"/>
      <stop offset=".56" stop-color="#067cb1"/>
      <stop offset=".57" stop-color="#057cb3"/>
      <stop offset=".58" stop-color="#067db4"/>
      <stop offset=".59" stop-color="#087db4"/>
      <stop offset=".59" stop-color="#0a7eb4"/>
      <stop offset=".6" stop-color="#047fb6"/>
      <stop offset=".61" stop-color="#067fb6"/>
      <stop offset=".62" stop-color="#0780b7"/>
      <stop offset=".62" stop-color="#0680b8"/>
      <stop offset=".63" stop-color="#0181b8"/>
      <stop offset=".64" stop-color="#0280b9"/>
      <stop offset=".65" stop-color="#0482ba"/>
      <stop offset=".66" stop-color="#0582bb"/>
      <stop offset=".66" stop-color="#0683bd"/>
      <stop offset=".67" stop-color="#0283bc"/>
      <stop offset=".68" stop-color="#0084bd"/>
      <stop offset=".69" stop-color="#0485be"/>
      <stop offset=".7" stop-color="#0385bf"/>
      <stop offset=".7" stop-color="#0785c0"/>
      <stop offset=".71" stop-color="#0785c0"/>
      <stop offset=".72" stop-color="#0187c1"/>
      <stop offset=".73" stop-color="#0286c2"/>
      <stop offset=".73" stop-color="#0487c3"/>
      <stop offset=".74" stop-color="#0088c4"/>
      <stop offset=".75" stop-color="#0088c4"/>
      <stop offset=".76" stop-color="#0289c5"/>
      <stop offset=".77" stop-color="#008ac7"/>
      <stop offset=".77" stop-color="#058ac7"/>
      <stop offset=".78" stop-color="#038ac8"/>
      <stop offset=".79" stop-color="#098bc8"/>
      <stop offset=".8" stop-color="#038cc9"/>
      <stop offset=".8" stop-color="#0a8cca"/>
      <stop offset=".81" stop-color="#038dcb"/>
      <stop offset=".82" stop-color="#048dcc"/>
      <stop offset=".83" stop-color="#098ecc"/>
      <stop offset=".84" stop-color="#078ecd"/>
      <stop offset=".84" stop-color="#0c8fcd"/>
      <stop offset=".85" stop-color="#0a8fcf"/>
      <stop offset=".86" stop-color="#0c90d0"/>
      <stop offset=".87" stop-color="#0b91cf"/>
      <stop offset=".88" stop-color="#0991d1"/>
      <stop offset=".88" stop-color="#0c92d2"/>
      <stop offset=".89" stop-color="#0e92d1"/>
      <stop offset=".9" stop-color="#1193d2"/>
      <stop offset=".91" stop-color="#1193d2"/>
      <stop offset=".91" stop-color="#0c94d3"/>
      <stop offset=".92" stop-color="#0e94d2"/>
      <stop offset=".93" stop-color="#1195d3"/>
      <stop offset=".94" stop-color="#0f95d4"/>
      <stop offset=".95" stop-color="#0f95d4"/>
      <stop offset=".95" stop-color="#1197d5"/>
      <stop offset=".96" stop-color="#1197d5"/>
      <stop offset=".97" stop-color="#1597d5"/>
      <stop offset=".98" stop-color="#1797d5"/>
      <stop offset=".98" stop-color="#1198d6"/>
      <stop offset=".99" stop-color="#1998d6"/>
      <stop offset="1" stop-color="#1599d6"/>
    </linearGradient>
    <linearGradient id="Gradiente_sem_nome_2-2" data-name="Gradiente sem nome 2" x1="-54.63" y1="519.16" x2="341.37" y2="538.22" xlink:href="#Gradiente_sem_nome_2"/>
    <linearGradient id="Gradiente_sem_nome_2-3" data-name="Gradiente sem nome 2" x1="-58.47" y1="598.94" x2="337.53" y2="618" xlink:href="#Gradiente_sem_nome_2"/>
    <linearGradient id="Gradiente_sem_nome_2-4" data-name="Gradiente sem nome 2" x1="-51.6" y1="456.25" x2="344.4" y2="475.31" xlink:href="#Gradiente_sem_nome_2"/>
    <linearGradient id="Gradiente_sem_nome_2-5" data-name="Gradiente sem nome 2" x1="-58.75" y1="604.87" x2="337.25" y2="623.93" xlink:href="#Gradiente_sem_nome_2"/>
    <linearGradient id="Gradiente_sem_nome_2-6" data-name="Gradiente sem nome 2" x1="-50.26" y1="428.33" x2="345.74" y2="447.39" xlink:href="#Gradiente_sem_nome_2"/>
    <linearGradient id="Gradiente_sem_nome_2-7" data-name="Gradiente sem nome 2" x1="-51.72" y1="458.66" x2="344.28" y2="477.72" xlink:href="#Gradiente_sem_nome_2"/>
  </defs>
  <g>
    <path class="cls-1" d="M392.31,505.54c-2.4-4.78-6.75-8.29-12.25-9.56-3.22-.7-4.64-.7-8.02-.14-2.95.41-6.75,2.24-9.15,4.21-1.68,1.54-2.24,1.68-5.35,2.11-6.32.7-13.23,2.81-17.87,5.62-5.48,3.1-10.55,8.02-19,18.28-5.48,6.73-9.7,10.4-14.5,12.64-5.48,2.67-8.72,3.38-15.33,3.38-6.75-.14-11.53-1.13-15.76-3.65-3.24-1.83-12.8-9.56-16.6-13.5-3.24-3.24-4.64-3.94-7.75-3.94-4.08.16-6.18,1.27-7.73,4.37-1.97,4.08-.57,7.73,4.08,11.1,1.54,1.11,4.78,3.65,7.04,5.62,7.86,6.75,13.64,10.4,20.12,12.51,9.85,3.1,23.35,2.81,33.91-.57,10.01-3.38,16.33-8.29,24.5-18.69,7.59-9.83,12.8-14.18,20.12-17.01,3.8-1.4,4.94-1.54,4.94-.84,0,.84,2.81,6.05,3.92,7.32,3.8,4.21,9.72,6.59,15.49,6.18,4.78-.43,8.16-1.83,11.39-4.78,6.05-5.35,7.47-13.21,3.8-20.66ZM375.71,518.32c-1.4,0-2.11-.27-3.24-1.4-1.4-1.4-1.7-1.95-1.7-3.65,0-1.54.29-2.24,1.4-3.38,1.13-1.27,1.7-1.4,3.53-1.4s2.38.14,3.8,1.54c1.11,1.13,1.54,1.83,1.54,3.1,0,3.38-1.83,5.19-5.35,5.19Z"/>
    <path class="cls-4" d="M104.79,549.11c12.95,8.29,33.23,10.13,48.13,4.21,5.35-2.24,9.99-5.48,18.01-12.64,2.4-2.11,5.07-4.21,6.07-4.64,1.97-1.13,3.94-3.79,4.35-6.05.86-4.78-4.64-9.97-9.56-9.13-2.67.57-3.94,1.4-6.91,4.64-3.94,4.35-13.79,12.08-17.73,13.91-10.83,5.05-26.87,2.95-36.58-4.92-1.4-1.13-5.64-5.76-9.42-10.4-8.74-10.69-13.38-14.77-20.97-18.14-4.37-2.11-9.29-3.36-14.07-3.65-3.53-.27-3.8-.41-5.78-2.11-2.4-2.24-6.05-3.78-9.72-4.35-3.24-.57-3.8-.57-7.18.14-3.65.7-6.61,2.38-9.29,5.05-3.8,3.94-5.35,8.02-5.05,13.64.41,6.48,4.08,11.8,10.13,14.61,2.81,1.4,3.38,1.56,7.75,1.56s4.92-.16,7.73-1.4c5.07-2.4,8.17-5.48,9.99-10.26,1-2.54,1.27-2.54,5.64-1.13,7.18,2.67,12.8,7.32,20.54,17.29,5.64,7.32,8.58,10.26,13.93,13.77ZM52.31,514.97c-1.7,5.19-9.44,4.35-10.15-1.13-.14-1.83,0-2.24,1.27-3.65.86-1,1.97-1.83,2.54-1.83,4.08-.84,7.61,2.95,6.34,6.61Z"/>
    <path class="cls-8" d="M324.61,666.19c-2.52-.57-2.67-.57-3.51-2.81-1.4-4.35-5.91-11.94-8.86-15.61-1.56-1.97-5.64-6.05-9.15-9.13-16.06-14.48-28.86-26.98-30.69-29.52-2.24-3.38-3.51-7.3-4.51-13.64-1.4-10.81-3.79-18.26-7.45-23.04-.98-1.27-2.24-2.95-2.67-3.65-1.27-2.67-11.26-16.17-19.28-26.28-2.44-3.2-3.94-5.58-4.51-7.18-1.83-5.62-6.89-8.43-11.69-6.32-1.81.7-3.79,2.95-4.35,5.05-.43,1.13-.57,15.47-.57,41.46,0,43.43,0,42.88,2.81,50.88,3.51,10.13,9.42,17.85,20.97,27.14l3.94,3.08v4.08c.14,4.92,1.27,8.02,4.51,11.8,6.75,7.88,20.12,8.29,27.59.7,3.65-3.78,5.48-9.27,4.64-14.34-1-6.46-4.64-11.1-10.71-14.05-2.81-1.27-3.51-1.4-7.32-1.4-2.95,0-4.92.14-6.48.84l-2.11.84-4.21-3.22c-9.15-7.18-14.07-13.36-16.47-20.95-1-3.08-1-4.21-1.13-18.69-.41-35.98-.41-40.48-.14-40.48s1.27,1.13,8.45,9.99c7.75,9.83,10.13,15.32,10.83,25.44.57,7.59,3.94,16.15,8.72,22.2,3.39,4.35,11.26,12.23,22.1,21.93,19.14,17.15,19.84,17.99,23.08,26.98l.84,2.24-1.54,2.54c-6.75,10.54-2.11,23.9,9.42,27.55,7.32,2.24,15.76,0,20.13-5.48,8.86-10.69,3.08-26.28-10.71-28.95ZM260.74,656.77c1.54-1.11,3.51-1.27,5.35-.14,1.81,1.27,2.54,2.67,2.67,4.78,0,2.54-2.4,4.78-5.07,4.78-2.11,0-3.51-.84-4.51-2.67-1.4-2.38-.84-4.78,1.56-6.75ZM321.24,689.23c-1.68,0-4.35-1.95-4.92-3.79-.84-2.11-.29-3.65,1.4-5.35,1.13-.98,1.83-1.27,3.51-1.27,1.83,0,2.4.29,3.67,1.56,1.27,1.25,1.54,1.95,1.54,3.22,0,3.1-2.24,5.62-5.21,5.62Z"/>
    <path class="cls-2" d="M248.06,473.78c2.67-8.58-4.78-16.72-13.79-15.04-6.75,1.27-11.1,8.29-9.13,14.75,1.4,4.94,7.45,8.86,12.53,8.16,4.78-.84,9.29-4.21,10.4-7.86Z"/>
    <path class="cls-5" d="M193.88,529.44c-2.11,1.11-3.38,3.22-4.64,7.02-.57,1.58-2.07,3.84-4.51,6.75-3.65,4.35-6.46,8.14-14.91,20.1-10.69,14.75-12.39,18.26-13.52,29.23-.7,7.18-1.54,10.4-3.65,14.2-1.97,3.65-2.97,4.78-23.08,23.47-15.9,14.75-19,17.99-22.24,23.33-2.24,3.51-5.48,10.4-5.48,11.67,0,.27-1.27.7-2.81.98-3.94.57-7.75,2.54-10.15,5.21-7.75,8.29-6.75,20.37,2.26,26.83,3.38,2.26,6.46,3.24,10.69,3.24,8.58,0,15.61-5.19,18.14-13.21,1.7-5.05.7-10.13-2.54-14.91l-1.68-2.38,1.13-2.81c2.95-7.88,6.18-11.53,24.89-28.39,10.56-9.56,17.87-16.88,20.84-20.66,4.78-6.61,7.75-14.63,8.29-22.92.43-5.33,1.27-8.84,3.24-12.92,1.56-3.24,7.75-11.39,13.38-17.99l3.08-3.53.16,24.74c.14,26.44-.16,30.08-2.26,36.13-2.24,6.32-6.75,11.8-15.63,19.1l-4.08,3.38-2.38-.84c-2.83-.98-8.88-1.11-11.82-.27-2.83.84-7.32,3.92-9.29,6.32-2.54,3.24-3.67,6.46-3.67,10.96,0,5.19,1.27,8.16,4.94,11.94,8.72,9.13,24.49,6.61,29.97-4.64,1.13-2.52,1.4-3.79,1.7-7.59l.27-4.49,3.24-2.4c11.26-8.29,19.14-19.24,22.94-31.9l1.27-4.08.14-41.19c.14-28.66,0-41.6-.43-42.86-1.4-4.92-7.32-7.3-11.82-4.62ZM107.47,685.02c-.27,1.7-2.67,3.67-4.51,4.08-2.11.43-4.35-.84-5.48-3.08-1.13-2.11-.57-4.78,1.4-6.18,3.67-2.67,9.44.84,8.58,5.19ZM164.75,662.82c-1.27,3.51-5.21,4.51-8.16,1.97-1.56-1.27-1.7-1.54-1.7-3.65,0-1.97.29-2.4,1.7-3.8,1.11-1.11,1.97-1.54,3.08-1.54,3.39,0,6.2,3.78,5.07,7.02Z"/>
    <path class="cls-7" d="M255.94,401.54c3.1,6.46,3.67,9.13,3.67,17.85,0,7.02-.14,7.73-1.27,11.24-1.7,4.64-3.67,8.58-5.77,11.39-2.24,3.08-2.95,4.78-2.95,6.32,0,1.83.57,2.81,3.38,6.05,4.08,4.78,5.48,8.56,5.48,14.89,0,8.29-4.21,16.17-10.96,20.52-4.8,2.95-5.91,4.51-5.77,8.29,0,3.51,1.27,5.91,5.48,9.83,2.97,2.97,4.51,3.94,8.88,6.05,7.02,3.38,11.67,4.35,20.68,4.35,17.31.16,30.4-6.59,40.52-20.66,4.04-5.42,7-11.71,8.88-18.83.84-3.24.98-5.35,1.27-23.04.27-17.85.41-19.82,1.4-23.2,1.11-4.64,3.94-10.13,7.32-14.61,4.51-6.05,4.35-5.91,8.45-6.05,6.05-.27,11.12-2.67,14.34-6.89,4.8-6.46,4.94-14.91,0-21.23-6.75-8.86-20.11-9.83-28.13-1.97-3.94,3.8-5.91,10.56-4.78,15.88.27,1.56.84,3.38,1.25,4.08.72,1.27.57,1.4-2.52,5.78-5.37,7.3-8.31,13.07-10.71,21.36-1.11,4.21-1.27,4.49-1.54,23.61-.27,20.52-.57,22.34-2.81,28.25-3.24,8.29-9.29,15.32-16.6,19.39-7.61,4.08-17.6,5.05-26.05,2.67-2.24-.7-6.48-2.95-9.29-5.05l-1.4-1,1.7-1.27c4.21-3.38,9.42-10.11,11.39-14.89,1.83-4.21,2.67-9.42,2.38-14.91-.41-6.05-1.11-9.13-3.79-14.48l-1.83-3.94,1.97-3.65c7.18-12.78,8.58-28.25,3.8-42.43-6.61-19.82-26.05-36.27-47.29-39.92-5.07-.86-17.03-1.27-21.25-.7-10.69,1.4-19.43,4.78-28.72,10.81-7.32,4.78-15.76,14.48-19.98,22.5-8.02,15.45-7.75,36.27.57,49.89,1.13,1.7,1.97,3.24,1.97,3.38s-.84,1.83-1.7,3.8c-2.81,5.76-3.65,9.7-3.65,17.42,0,6.18.14,7.02,1.27,10.54,1.68,4.78,5.76,10.69,10.13,14.77,1.83,1.54,3.24,3.08,3.24,3.22,0,0-1.54,1.13-3.38,2.4-4.78,3.38-9.29,4.64-15.9,4.64s-10.42-.86-15.49-3.24c-9.42-4.51-16.04-12.8-19.55-24.6-.72-2.38-.86-5.76-1.13-22.63-.43-21.36-.29-20.37-3.1-28.95-1.97-5.62-3.94-9.54-7.75-14.89-4.78-6.89-4.78-6.75-3.94-8.29,1.27-2.4,1.83-7.02,1.27-9.85-1.27-6.18-4.92-10.81-10.69-13.48-2.81-1.27-3.51-1.4-7.45-1.4-6.05.14-9.15,1.27-12.82,4.78-3.65,3.65-5.62,7.59-5.76,12.37-.29,4.35.7,7.3,3.51,10.81,3.67,4.78,8.58,7.18,14.77,7.18h3.8l2.26,2.95c5.35,7.02,8.16,12.8,9.85,19.82.7,2.95.84,6.46.84,21.07.14,14.34.27,18.14.98,21.23,4.08,19.69,18.73,35.84,36.74,40.21,3.8.98,5.35,1.11,12.95,1.11,10.13-.14,13.07-.7,20.82-4.35,3.8-1.83,5.64-3.1,8.45-5.62,4.37-4.08,6.05-6.89,6.05-10.13,0-3.51-1.27-5.48-5.91-8.72-5.48-3.78-8.16-7.73-9.85-14.32-2.11-7.88-.27-15.88,4.78-21.23,2.54-2.54,3.1-3.65,3.1-5.48,0-1.7-.41-2.67-3.8-7.59-1.81-2.54-3.08-5.35-4.35-8.86l-1.83-5.05v-7.75c0-8.84.43-11.1,3.67-17.56,8.99-17.99,29.27-29.23,48.97-26.98,6.05.7,10.55,1.97,15.47,4.21,10.42,4.64,18.87,12.78,23.78,22.77ZM339.67,392.54c.43-1.4,1-2.11,2.26-2.67,2.52-1.27,5.48-.43,7.02,2.11,1.27,2.11,1.13,3.8-.7,5.48-1.4,1.4-1.83,1.54-3.94,1.54s-2.67-.14-3.65-1.11c-1.56-1.7-1.83-3.24-1-5.35ZM81.85,398.59c-1.68.7-4.49.55-5.62-.29-1.27-.84-2.4-2.95-2.4-4.35,0-1.27,1.97-3.8,3.38-4.35,3.1-1.27,6.61.84,7.18,4.08.29,1.95-.84,4.35-2.54,4.92Z"/>
    <path class="cls-3" d="M198.95,470.27c-.14-3.24-.84-5.35-2.97-7.59-3.65-4.08-9.56-5.07-14.5-2.81-8.16,4.08-8.29,15.88-.14,20.23,4.8,2.54,9.58,1.83,13.52-1.68,2.95-2.54,4.08-4.78,4.08-8.16Z"/>
  </g>
  <g>
    <g>
      <path class="cls-6" d="M465.09,473.86c5.39,2.86,9.57,6.87,12.52,12.04,2.96,5.17,4.43,11.13,4.43,17.88s-1.48,12.64-4.43,17.83c-2.96,5.2-7.15,9.23-12.57,12.09-5.43,2.86-11.71,4.29-18.86,4.29h-25.63v-68.42h25.63c7.21,0,13.51,1.43,18.91,4.29ZM459.83,518.4c3.51-3.44,5.26-8.32,5.26-14.62s-1.75-11.21-5.26-14.72-8.42-5.26-14.72-5.26h-7.89v39.76h7.89c6.3,0,11.21-1.72,14.72-5.17Z"/>
      <path class="cls-6" d="M542.38,514.8h-37.72c.26,3.38,1.35,5.96,3.27,7.75,1.92,1.79,4.27,2.68,7.07,2.68,4.16,0,7.05-1.75,8.67-5.26h17.74c-.91,3.57-2.55,6.79-4.92,9.65-2.37,2.86-5.35,5.1-8.92,6.73-3.57,1.62-7.57,2.44-11.99,2.44-5.33,0-10.07-1.14-14.23-3.41-4.16-2.27-7.41-5.52-9.75-9.75-2.34-4.22-3.51-9.16-3.51-14.81s1.15-10.59,3.46-14.81c2.31-4.22,5.54-7.47,9.7-9.75,4.16-2.27,8.93-3.41,14.33-3.41s9.94,1.11,14.03,3.31c4.09,2.21,7.29,5.36,9.6,9.45,2.31,4.09,3.46,8.87,3.46,14.33,0,1.56-.1,3.18-.29,4.87ZM525.62,505.54c0-2.86-.97-5.13-2.92-6.82-1.95-1.69-4.39-2.53-7.31-2.53s-5.15.81-7.07,2.44c-1.92,1.62-3.1,3.93-3.56,6.92h20.86Z"/>
      <path class="cls-6" d="M575.9,522.4l11.79-38.79h17.74l-19.3,54.38h-20.56l-19.3-54.38h17.84l11.79,38.79Z"/>
      <path class="cls-6" d="M622.78,477.27v22.71h24.75v7.31h-24.75v23.39h27.68v7.31h-36.55v-68.03h36.55v7.31h-27.68Z"/>
      <path class="cls-6" d="M735.45,486.19c3.25,1.72,5.81,4.3,7.7,7.75,1.88,3.44,2.83,7.64,2.83,12.57v31.48h-8.77v-30.21c0-5.33-1.32-9.4-3.95-12.23-2.63-2.83-6.19-4.24-10.67-4.24s-8.28,1.48-11.01,4.43c-2.73,2.96-4.09,7.23-4.09,12.82v29.43h-8.77v-30.21c0-5.33-1.32-9.4-3.95-12.23-2.63-2.83-6.19-4.24-10.67-4.24s-8.28,1.48-11.01,4.43c-2.73,2.96-4.09,7.23-4.09,12.82v29.43h-8.87v-53.41h8.87v7.7c1.75-2.79,4.11-4.94,7.07-6.43,2.96-1.49,6.22-2.24,9.79-2.24,4.48,0,8.45,1.01,11.89,3.02,3.44,2.01,6.01,4.97,7.7,8.87,1.49-3.77,3.96-6.69,7.41-8.77,3.44-2.08,7.28-3.12,11.5-3.12s7.86.86,11.11,2.58Z"/>
      <path class="cls-6" d="M770.39,486.78c3.48-2.05,7.52-3.07,12.13-3.07s9.05,1.14,12.91,3.41c3.86,2.28,6.9,5.47,9.11,9.6,2.21,4.13,3.31,8.92,3.31,14.37s-1.11,10.2-3.31,14.42c-2.21,4.22-5.25,7.5-9.11,9.84-3.87,2.34-8.17,3.51-12.91,3.51s-8.56-1.02-12.04-3.07c-3.48-2.05-6.12-4.6-7.94-7.65v35.18h-8.87v-78.75h8.87v9.84c1.75-3.05,4.37-5.6,7.85-7.65ZM796.36,500.57c-1.63-2.99-3.82-5.26-6.58-6.82-2.76-1.56-5.8-2.34-9.11-2.34s-6.25.8-9.02,2.39c-2.76,1.59-4.97,3.9-6.63,6.92-1.66,3.02-2.48,6.51-2.48,10.48s.83,7.55,2.48,10.57c1.66,3.02,3.86,5.33,6.63,6.92,2.76,1.59,5.77,2.39,9.02,2.39s6.35-.79,9.11-2.39c2.76-1.59,4.95-3.9,6.58-6.92,1.62-3.02,2.44-6.58,2.44-10.67s-.81-7.54-2.44-10.53Z"/>
      <path class="cls-6" d="M829.25,535.46c-4.06-2.27-7.25-5.51-9.55-9.7-2.31-4.19-3.46-9.05-3.46-14.57s1.18-10.28,3.56-14.47c2.37-4.19,5.6-7.41,9.7-9.65,4.09-2.24,8.67-3.36,13.74-3.36s9.65,1.12,13.74,3.36c4.09,2.24,7.32,5.44,9.7,9.6,2.37,4.16,3.56,9,3.56,14.52s-1.22,10.38-3.65,14.57-5.73,7.42-9.89,9.7c-4.16,2.28-8.77,3.41-13.84,3.41s-9.54-1.14-13.6-3.41ZM851.81,528.83c2.79-1.49,5.05-3.74,6.77-6.73,1.72-2.99,2.58-6.63,2.58-10.92s-.85-7.93-2.53-10.92c-1.69-2.99-3.9-5.21-6.63-6.68-2.73-1.46-5.69-2.19-8.87-2.19s-6.22.73-8.92,2.19c-2.7,1.46-4.86,3.69-6.48,6.68-1.63,2.99-2.44,6.63-2.44,10.92s.79,8.03,2.39,11.01c1.59,2.99,3.72,5.21,6.38,6.68,2.66,1.46,5.59,2.19,8.77,2.19s6.17-.75,8.97-2.24Z"/>
      <path class="cls-6" d="M953.07,484.58l-16.67,53.41h-9.16l-12.87-42.39-12.86,42.39h-9.16l-16.76-53.41h9.06l12.28,44.83,13.25-44.83h9.06l12.96,44.93,12.09-44.93h8.77Z"/>
      <path class="cls-6" d="M1010.28,514.6h-42.69c.32,5.26,2.13,9.37,5.41,12.33,3.28,2.96,7.26,4.43,11.94,4.43,3.83,0,7.03-.89,9.6-2.68,2.57-1.79,4.37-4.17,5.41-7.16h9.55c-1.43,5.13-4.29,9.31-8.58,12.52-4.29,3.22-9.62,4.82-15.98,4.82-5.07,0-9.6-1.14-13.6-3.41-4-2.27-7.13-5.51-9.41-9.7-2.28-4.19-3.41-9.05-3.41-14.57s1.1-10.36,3.31-14.52c2.21-4.16,5.31-7.36,9.31-9.6,4-2.24,8.59-3.36,13.79-3.36s9.55,1.11,13.45,3.31c3.9,2.21,6.9,5.25,9.02,9.11,2.11,3.87,3.17,8.24,3.17,13.11,0,1.69-.1,3.48-.29,5.36ZM999.17,498.67c-1.5-2.44-3.53-4.29-6.09-5.56-2.57-1.27-5.41-1.9-8.53-1.9-4.48,0-8.3,1.43-11.45,4.29-3.15,2.86-4.96,6.82-5.41,11.89h33.72c0-3.38-.75-6.29-2.24-8.72Z"/>
      <path class="cls-6" d="M1037.81,486.14c2.89-1.69,6.42-2.53,10.57-2.53v9.16h-2.34c-9.94,0-14.91,5.39-14.91,16.18v29.04h-8.87v-53.41h8.87v8.67c1.56-3.05,3.78-5.42,6.68-7.11Z"/>
    </g>
    <g>
      <path class="cls-6" d="M435.45,586.17c-.61,1.15-1.59,2.09-2.94,2.81-1.35.72-3.08,1.08-5.18,1.08h-4.63v10.36h-4.19v-25.54h8.82c1.96,0,3.62.34,4.98,1.01,1.36.67,2.38,1.59,3.05,2.74s1.01,2.44,1.01,3.86c0,1.3-.31,2.52-.92,3.67ZM430.89,585.56c.78-.72,1.18-1.75,1.18-3.07,0-2.79-1.58-4.19-4.74-4.19h-4.63v8.34h4.63c1.59,0,2.78-.36,3.56-1.08Z"/>
      <path class="cls-6" d="M447,580.71c1.02-.58,2.22-.86,3.62-.86v4.34h-1.07c-1.64,0-2.89.42-3.73,1.25-.85.83-1.27,2.28-1.27,4.34v10.66h-4.19v-20.25h4.19v2.94c.61-1.03,1.43-1.83,2.44-2.41Z"/>
      <path class="cls-6" d="M458.08,599.46c-1.54-.87-2.76-2.09-3.64-3.68-.88-1.58-1.32-3.41-1.32-5.49s.45-3.88,1.36-5.48c.91-1.59,2.14-2.82,3.71-3.68,1.57-.86,3.32-1.29,5.26-1.29s3.69.43,5.26,1.29c1.57.86,2.81,2.08,3.71,3.68.91,1.59,1.36,3.42,1.36,5.48s-.47,3.88-1.4,5.48c-.93,1.59-2.2,2.82-3.8,3.69-1.6.87-3.38,1.3-5.31,1.3s-3.64-.43-5.18-1.3ZM466.3,596.35c.94-.51,1.71-1.29,2.3-2.32.59-1.03.88-2.28.88-3.75s-.28-2.71-.85-3.73c-.56-1.02-1.31-1.78-2.24-2.3-.93-.51-1.94-.77-3.01-.77s-2.08.26-3,.77c-.92.51-1.65,1.28-2.19,2.3-.54,1.02-.81,2.26-.81,3.73,0,2.18.56,3.86,1.67,5.05,1.11,1.19,2.52,1.78,4.21,1.78,1.08,0,2.09-.26,3.03-.77Z"/>
      <path class="cls-6" d="M490.26,580.79c1.21.62,2.16,1.4,2.85,2.33v-2.94h4.23v20.58c0,1.86-.39,3.52-1.18,4.98-.78,1.46-1.92,2.6-3.4,3.44-1.48.83-3.25,1.25-5.31,1.25-2.74,0-5.02-.64-6.84-1.93-1.81-1.29-2.84-3.03-3.09-5.24h4.15c.32,1.05,1,1.9,2.04,2.55s2.28.97,3.73.97c1.69,0,3.06-.51,4.1-1.54,1.04-1.03,1.56-2.52,1.56-4.48v-3.38c-.71.96-1.67,1.76-2.89,2.41-1.21.65-2.59.97-4.13.97-1.76,0-3.38-.45-4.83-1.34-1.46-.89-2.61-2.14-3.45-3.75-.85-1.6-1.27-3.42-1.27-5.46s.42-3.83,1.27-5.4,2-2.79,3.45-3.66c1.46-.87,3.07-1.31,4.83-1.31,1.57,0,2.96.31,4.17.94ZM492.24,586.65c-.58-1.03-1.33-1.81-2.26-2.35-.93-.54-1.94-.81-3.01-.81s-2.08.26-3.01.79c-.93.53-1.68,1.3-2.26,2.32-.58,1.02-.86,2.22-.86,3.62s.29,2.62.86,3.67c.58,1.05,1.34,1.86,2.28,2.41.94.55,1.94.83,3,.83s2.08-.27,3.01-.81c.93-.54,1.68-1.33,2.26-2.37.58-1.04.86-2.26.86-3.66s-.29-2.61-.86-3.64Z"/>
      <path class="cls-6" d="M509.48,580.71c1.02-.58,2.22-.86,3.62-.86v4.34h-1.07c-1.64,0-2.88.42-3.73,1.25-.85.83-1.27,2.28-1.27,4.34v10.66h-4.19v-20.25h4.19v2.94c.61-1.03,1.43-1.83,2.44-2.41Z"/>
      <path class="cls-6" d="M516.83,584.81c.85-1.57,2-2.79,3.45-3.66,1.46-.87,3.07-1.31,4.83-1.31,1.59,0,2.98.31,4.17.94,1.19.62,2.14,1.4,2.85,2.33v-2.94h4.23v20.25h-4.23v-3.01c-.71.96-1.68,1.75-2.9,2.39s-2.62.96-4.19.96c-1.74,0-3.33-.45-4.78-1.34-1.45-.89-2.59-2.14-3.44-3.75-.85-1.6-1.27-3.42-1.27-5.46s.42-3.83,1.27-5.4ZM531.27,586.65c-.58-1.03-1.33-1.81-2.26-2.35-.93-.54-1.94-.81-3.01-.81s-2.08.26-3.01.79c-.93.53-1.68,1.3-2.26,2.32-.58,1.02-.86,2.22-.86,3.62s.29,2.62.86,3.67c.58,1.05,1.34,1.86,2.28,2.41s1.94.83,3,.83,2.08-.27,3.01-.81c.93-.54,1.68-1.33,2.26-2.37.58-1.04.86-2.26.86-3.66s-.29-2.61-.86-3.64Z"/>
      <path class="cls-6" d="M570.67,580.84c1.26.66,2.25,1.64,2.98,2.94.72,1.3,1.08,2.87,1.08,4.7v11.94h-4.15v-11.32c0-1.81-.45-3.2-1.36-4.17-.91-.97-2.14-1.45-3.71-1.45s-2.81.48-3.73,1.45c-.92.97-1.38,2.36-1.38,4.17v11.32h-4.15v-11.32c0-1.81-.45-3.2-1.36-4.17-.91-.97-2.14-1.45-3.71-1.45s-2.81.48-3.73,1.45c-.92.97-1.38,2.36-1.38,4.17v11.32h-4.19v-20.25h4.19v2.32c.69-.83,1.56-1.48,2.61-1.95,1.05-.46,2.18-.7,3.38-.7,1.62,0,3.06.34,4.34,1.03,1.27.69,2.25,1.68,2.94,2.98.61-1.22,1.57-2.2,2.87-2.92,1.3-.72,2.7-1.08,4.19-1.08,1.59,0,3.02.33,4.28.99Z"/>
      <path class="cls-6" d="M598.47,591.87h-15.47c.12,1.62.72,2.92,1.8,3.9s2.4,1.47,3.97,1.47c2.25,0,3.85-.94,4.78-2.83h4.52c-.61,1.86-1.72,3.39-3.33,4.58-1.6,1.19-3.6,1.78-5.97,1.78-1.94,0-3.67-.43-5.2-1.3-1.53-.87-2.73-2.09-3.6-3.68-.87-1.58-1.3-3.41-1.3-5.49s.42-3.91,1.27-5.49c.85-1.58,2.03-2.8,3.56-3.66,1.53-.86,3.29-1.29,5.27-1.29s3.61.42,5.11,1.25c1.49.83,2.66,2,3.49,3.51.83,1.51,1.25,3.24,1.25,5.2,0,.76-.05,1.45-.15,2.06ZM594.25,588.49c-.02-1.54-.58-2.78-1.65-3.71-1.08-.93-2.41-1.4-4.01-1.4-1.45,0-2.68.46-3.71,1.38-1.03.92-1.64,2.16-1.84,3.73h11.21Z"/>
      <path class="cls-6" d="M615.89,599.46c-1.54-.87-2.76-2.09-3.64-3.68-.88-1.58-1.32-3.41-1.32-5.49s.45-3.88,1.36-5.48,2.14-2.82,3.71-3.68c1.57-.86,3.32-1.29,5.26-1.29s3.69.43,5.25,1.29c1.57.86,2.81,2.08,3.71,3.68.91,1.59,1.36,3.42,1.36,5.48s-.47,3.88-1.4,5.48-2.2,2.82-3.8,3.69-3.38,1.3-5.31,1.3-3.64-.43-5.18-1.3ZM624.11,596.35c.94-.51,1.71-1.29,2.3-2.32s.88-2.28.88-3.75-.28-2.71-.85-3.73c-.56-1.02-1.31-1.78-2.24-2.3-.93-.51-1.94-.77-3.01-.77s-2.08.26-2.99.77c-.92.51-1.65,1.28-2.19,2.3s-.81,2.26-.81,3.73c0,2.18.56,3.86,1.67,5.05,1.12,1.19,2.52,1.78,4.21,1.78,1.08,0,2.09-.26,3.03-.77Z"/>
      <path class="cls-6" d="M661.61,574.63v5.03h-10.51v5.44h7.86v4.89h-7.86v10.44h-6.28v-25.8h16.8Z"/>
      <path class="cls-6" d="M685.17,579.92v20.51h-6.28v-2.79c-.64.91-1.5,1.64-2.59,2.19s-2.3.83-3.62.83c-1.57,0-2.95-.35-4.15-1.05-1.2-.7-2.13-1.71-2.79-3.03s-.99-2.88-.99-4.67v-11.98h6.25v11.14c0,1.37.35,2.44,1.07,3.2.71.76,1.67,1.14,2.87,1.14s2.19-.38,2.9-1.14c.71-.76,1.07-1.82,1.07-3.2v-11.14h6.28Z"/>
      <path class="cls-6" d="M701.12,595.1v5.33h-3.2c-2.28,0-4.06-.56-5.33-1.67-1.27-1.11-1.91-2.93-1.91-5.46v-8.16h-2.5v-5.22h2.5v-5h6.28v5h4.12v5.22h-4.12v8.23c0,.61.15,1.05.44,1.32.29.27.78.4,1.47.4h2.24Z"/>
      <path class="cls-6" d="M724.86,579.92v20.51h-6.28v-2.79c-.64.91-1.5,1.64-2.59,2.19s-2.3.83-3.62.83c-1.57,0-2.95-.35-4.15-1.05-1.2-.7-2.13-1.71-2.79-3.03s-.99-2.88-.99-4.67v-11.98h6.25v11.14c0,1.37.35,2.44,1.07,3.2.71.76,1.67,1.14,2.87,1.14s2.19-.38,2.9-1.14c.71-.76,1.07-1.82,1.07-3.2v-11.14h6.28Z"/>
      <path class="cls-6" d="M738.42,580.68c1.1-.65,2.33-.97,3.67-.97v6.65h-1.73c-1.57,0-2.74.34-3.53,1.01-.78.67-1.18,1.86-1.18,3.55v9.52h-6.28v-20.51h6.28v3.42c.73-1.13,1.65-2.02,2.76-2.66Z"/>
      <path class="cls-6" d="M749.02,599.44c-1.6-.86-2.87-2.08-3.79-3.67s-1.38-3.45-1.38-5.59.47-3.96,1.4-5.57,2.21-2.84,3.82-3.69c1.62-.86,3.43-1.29,5.44-1.29s3.82.43,5.44,1.29c1.62.86,2.89,2.09,3.82,3.69s1.4,3.46,1.4,5.57-.47,3.96-1.41,5.57c-.94,1.6-2.23,2.84-3.86,3.69-1.63.86-3.45,1.29-5.46,1.29s-3.82-.43-5.42-1.29ZM757.51,593.96c.85-.88,1.27-2.14,1.27-3.79s-.41-2.9-1.23-3.79c-.82-.88-1.83-1.32-3.03-1.32s-2.24.44-3.05,1.3c-.81.87-1.21,2.14-1.21,3.8s.4,2.9,1.19,3.79c.8.88,1.79,1.32,3,1.32s2.22-.44,3.07-1.32Z"/>
    </g>
  </g>
</svg>