<?xml version="1.0" encoding="UTF-8"?>
<svg id="Camada_1" data-name="Camada 1" xmlns="http://www.w3.org/2000/svg" xmlns:xlink="http://www.w3.org/1999/xlink" viewBox="0 0 1080 1080">
  <defs>
    <style>
      .cls-1 {
        fill: url(#Gradiente_sem_nome_2);
      }

      .cls-1, .cls-2, .cls-3, .cls-4, .cls-5, .cls-6, .cls-7, .cls-8 {
        stroke-width: 0px;
      }

      .cls-2 {
        fill: url(#Gradiente_sem_nome_2-4);
      }

      .cls-3 {
        fill: url(#Gradiente_sem_nome_2-7);
      }

      .cls-4 {
        fill: url(#Gradiente_sem_nome_2-2);
      }

      .cls-5 {
        fill: url(#Gradiente_sem_nome_2-5);
      }

      .cls-6 {
        fill: #0f92cd;
      }

      .cls-7 {
        fill: url(#Gradiente_sem_nome_2-6);
      }

      .cls-8 {
        fill: url(#Gradiente_sem_nome_2-3);
      }
    </style>
    <linearGradient id="Gradiente_sem_nome_2" data-name="Gradiente sem nome 2" x1="681.66" y1="172.84" x2="685.15" y2="617.34" gradientUnits="userSpaceOnUse">
      <stop offset="0" stop-color="#025478"/>
      <stop offset="0" stop-color="#025478"/>
      <stop offset=".02" stop-color="#025579"/>
      <stop offset=".02" stop-color="#05547a"/>
      <stop offset=".03" stop-color="#02567b"/>
      <stop offset=".04" stop-color="#03567c"/>
      <stop offset=".05" stop-color="#02577c"/>
      <stop offset=".05" stop-color="#03577d"/>
      <stop offset=".06" stop-color="#01587e"/>
      <stop offset=".07" stop-color="#03597f"/>
      <stop offset=".08" stop-color="#055880"/>
      <stop offset=".09" stop-color="#045a80"/>
      <stop offset=".09" stop-color="#055a81"/>
      <stop offset=".1" stop-color="#065b82"/>
      <stop offset=".11" stop-color="#075b83"/>
      <stop offset=".12" stop-color="#055c84"/>
      <stop offset=".12" stop-color="#055c84"/>
      <stop offset=".13" stop-color="#075c85"/>
      <stop offset=".14" stop-color="#085d85"/>
      <stop offset=".15" stop-color="#045d86"/>
      <stop offset=".16" stop-color="#055f88"/>
      <stop offset=".16" stop-color="#055f88"/>
      <stop offset=".17" stop-color="#075f88"/>
      <stop offset=".18" stop-color="#08608a"/>
      <stop offset=".19" stop-color="#08618b"/>
      <stop offset=".2" stop-color="#04618c"/>
      <stop offset=".2" stop-color="#08628c"/>
      <stop offset=".21" stop-color="#06638d"/>
      <stop offset=".22" stop-color="#07638e"/>
      <stop offset=".23" stop-color="#026490"/>
      <stop offset=".23" stop-color="#036490"/>
      <stop offset=".24" stop-color="#056590"/>
      <stop offset=".25" stop-color="#066591"/>
      <stop offset=".26" stop-color="#016692"/>
      <stop offset=".27" stop-color="#016794"/>
      <stop offset=".27" stop-color="#036794"/>
      <stop offset=".28" stop-color="#046894"/>
      <stop offset=".29" stop-color="#056896"/>
      <stop offset=".3" stop-color="#066997"/>
      <stop offset=".3" stop-color="#026997"/>
      <stop offset=".31" stop-color="#026a99"/>
      <stop offset=".32" stop-color="#026a99"/>
      <stop offset=".33" stop-color="#056b99"/>
      <stop offset=".34" stop-color="#066c9a"/>
      <stop offset=".34" stop-color="#076c9b"/>
      <stop offset=".35" stop-color="#026d9d"/>
      <stop offset=".36" stop-color="#026d9d"/>
      <stop offset=".37" stop-color="#056e9d"/>
      <stop offset=".38" stop-color="#046e9e"/>
      <stop offset=".38" stop-color="#076f9f"/>
      <stop offset=".39" stop-color="#066fa0"/>
      <stop offset=".4" stop-color="#0b70a0"/>
      <stop offset=".41" stop-color="#0571a1"/>
      <stop offset=".41" stop-color="#0771a2"/>
      <stop offset=".42" stop-color="#0872a3"/>
      <stop offset=".43" stop-color="#0972a4"/>
      <stop offset=".44" stop-color="#0b73a4"/>
      <stop offset=".45" stop-color="#0473a5"/>
      <stop offset=".45" stop-color="#0774a6"/>
      <stop offset=".46" stop-color="#0974a7"/>
      <stop offset=".47" stop-color="#0375a8"/>
      <stop offset=".48" stop-color="#0b76a8"/>
      <stop offset=".48" stop-color="#0376a9"/>
      <stop offset=".49" stop-color="#0777aa"/>
      <stop offset=".5" stop-color="#0877ab"/>
      <stop offset=".51" stop-color="#0978ad"/>
      <stop offset=".52" stop-color="#0978ad"/>
      <stop offset=".52" stop-color="#0679ad"/>
      <stop offset=".53" stop-color="#077aae"/>
      <stop offset=".54" stop-color="#057ab0"/>
      <stop offset=".55" stop-color="#0a7bb0"/>
      <stop offset=".55" stop-color="#0a7bb0"/>
      <stop offset=".56" stop-color="#067cb1"/>
      <stop offset=".57" stop-color="#057cb3"/>
      <stop offset=".58" stop-color="#067db4"/>
      <stop offset=".59" stop-color="#087db4"/>
      <stop offset=".59" stop-color="#0a7eb4"/>
      <stop offset=".6" stop-color="#047fb6"/>
      <stop offset=".61" stop-color="#067fb6"/>
      <stop offset=".62" stop-color="#0780b7"/>
      <stop offset=".62" stop-color="#0680b8"/>
      <stop offset=".63" stop-color="#0181b8"/>
      <stop offset=".64" stop-color="#0280b9"/>
      <stop offset=".65" stop-color="#0482ba"/>
      <stop offset=".66" stop-color="#0582bb"/>
      <stop offset=".66" stop-color="#0683bd"/>
      <stop offset=".67" stop-color="#0283bc"/>
      <stop offset=".68" stop-color="#0084bd"/>
      <stop offset=".69" stop-color="#0485be"/>
      <stop offset=".7" stop-color="#0385bf"/>
      <stop offset=".7" stop-color="#0785c0"/>
      <stop offset=".71" stop-color="#0785c0"/>
      <stop offset=".72" stop-color="#0187c1"/>
      <stop offset=".73" stop-color="#0286c2"/>
      <stop offset=".73" stop-color="#0487c3"/>
      <stop offset=".74" stop-color="#0088c4"/>
      <stop offset=".75" stop-color="#0088c4"/>
      <stop offset=".76" stop-color="#0289c5"/>
      <stop offset=".77" stop-color="#008ac7"/>
      <stop offset=".77" stop-color="#058ac7"/>
      <stop offset=".78" stop-color="#038ac8"/>
      <stop offset=".79" stop-color="#098bc8"/>
      <stop offset=".8" stop-color="#038cc9"/>
      <stop offset=".8" stop-color="#0a8cca"/>
      <stop offset=".81" stop-color="#038dcb"/>
      <stop offset=".82" stop-color="#048dcc"/>
      <stop offset=".83" stop-color="#098ecc"/>
      <stop offset=".84" stop-color="#078ecd"/>
      <stop offset=".84" stop-color="#0c8fcd"/>
      <stop offset=".85" stop-color="#0a8fcf"/>
      <stop offset=".86" stop-color="#0c90d0"/>
      <stop offset=".87" stop-color="#0b91cf"/>
      <stop offset=".88" stop-color="#0991d1"/>
      <stop offset=".88" stop-color="#0c92d2"/>
      <stop offset=".89" stop-color="#0e92d1"/>
      <stop offset=".9" stop-color="#1193d2"/>
      <stop offset=".91" stop-color="#1193d2"/>
      <stop offset=".91" stop-color="#0c94d3"/>
      <stop offset=".92" stop-color="#0e94d2"/>
      <stop offset=".93" stop-color="#1195d3"/>
      <stop offset=".94" stop-color="#0f95d4"/>
      <stop offset=".95" stop-color="#0f95d4"/>
      <stop offset=".95" stop-color="#1197d5"/>
      <stop offset=".96" stop-color="#1197d5"/>
      <stop offset=".97" stop-color="#1597d5"/>
      <stop offset=".98" stop-color="#1797d5"/>
      <stop offset=".98" stop-color="#1198d6"/>
      <stop offset=".99" stop-color="#1998d6"/>
      <stop offset="1" stop-color="#1599d6"/>
    </linearGradient>
    <linearGradient id="Gradiente_sem_nome_2-2" data-name="Gradiente sem nome 2" x1="395.02" y1="175.09" x2="398.51" y2="619.59" xlink:href="#Gradiente_sem_nome_2"/>
    <linearGradient id="Gradiente_sem_nome_2-3" data-name="Gradiente sem nome 2" x1="626.91" y1="173.27" x2="630.39" y2="617.77" xlink:href="#Gradiente_sem_nome_2"/>
    <linearGradient id="Gradiente_sem_nome_2-4" data-name="Gradiente sem nome 2" x1="572.39" y1="173.7" x2="575.87" y2="618.2" xlink:href="#Gradiente_sem_nome_2"/>
    <linearGradient id="Gradiente_sem_nome_2-5" data-name="Gradiente sem nome 2" x1="447.41" y1="174.68" x2="450.89" y2="619.18" xlink:href="#Gradiente_sem_nome_2"/>
    <linearGradient id="Gradiente_sem_nome_2-6" data-name="Gradiente sem nome 2" x1="539.66" y1="173.96" x2="543.15" y2="618.46" xlink:href="#Gradiente_sem_nome_2"/>
    <linearGradient id="Gradiente_sem_nome_2-7" data-name="Gradiente sem nome 2" x1="505.76" y1="174.22" x2="509.24" y2="618.72" xlink:href="#Gradiente_sem_nome_2"/>
  </defs>
  <g>
    <path class="cls-1" d="M783.11,372.44c-3.23-6.43-9.09-11.16-16.49-12.87-4.33-.95-6.25-.95-10.79-.18-3.97.55-9.09,3.02-12.32,5.67-2.26,2.07-3.02,2.26-7.2,2.84-8.51.95-17.8,3.78-24.05,7.56-7.38,4.18-14.21,10.79-25.58,24.61-7.38,9.06-13.05,14-19.51,17.02-7.38,3.6-11.74,4.54-20.64,4.54-9.09-.18-15.52-1.52-21.22-4.91-4.36-2.47-17.23-12.87-22.35-18.17-4.36-4.36-6.25-5.3-10.43-5.3-5.49.21-8.32,1.71-10.4,5.88-2.65,5.49-.76,10.4,5.49,14.94,2.07,1.5,6.43,4.91,9.48,7.56,10.58,9.09,18.36,14,27.07,16.83,13.26,4.18,31.43,3.78,45.64-.76,13.47-4.54,21.98-11.16,32.98-25.16,10.22-13.23,17.23-19.09,27.07-22.9,5.12-1.89,6.64-2.07,6.64-1.13,0,1.13,3.78,8.14,5.28,9.85,5.12,5.67,13.08,8.88,20.85,8.32,6.43-.58,10.98-2.47,15.34-6.43,8.14-7.2,10.06-17.78,5.12-27.81ZM760.77,389.64c-1.89,0-2.84-.37-4.36-1.89-1.89-1.89-2.28-2.63-2.28-4.91,0-2.07.39-3.02,1.89-4.54,1.52-1.71,2.28-1.89,4.75-1.89s3.2.18,5.12,2.07c1.5,1.52,2.07,2.47,2.07,4.18,0,4.54-2.47,6.99-7.2,6.99Z"/>
    <path class="cls-4" d="M396.12,431.08c17.44,11.16,44.72,13.63,64.78,5.67,7.2-3.02,13.45-7.38,24.24-17.02,3.23-2.84,6.83-5.67,8.17-6.25,2.65-1.52,5.3-5.09,5.86-8.14,1.16-6.43-6.25-13.42-12.87-12.29-3.6.76-5.3,1.89-9.3,6.25-5.3,5.86-18.57,16.25-23.87,18.72-14.57,6.8-36.16,3.97-49.24-6.62-1.89-1.52-7.59-7.75-12.68-14-11.76-14.39-18.01-19.88-28.23-24.42-5.88-2.84-12.5-4.52-18.93-4.91-4.75-.37-5.12-.55-7.77-2.84-3.23-3.02-8.14-5.09-13.08-5.86-4.36-.76-5.12-.76-9.66.18-4.91.95-8.9,3.2-12.5,6.8-5.12,5.3-7.2,10.79-6.8,18.36.55,8.72,5.49,15.89,13.63,19.67,3.78,1.89,4.54,2.1,10.43,2.1s6.62-.21,10.4-1.89c6.83-3.23,11-7.38,13.45-13.81,1.34-3.41,1.71-3.41,7.59-1.52,9.66,3.6,17.23,9.85,27.65,23.27,7.59,9.85,11.55,13.81,18.75,18.54ZM325.48,385.12c-2.28,6.98-12.71,5.86-13.65-1.52-.18-2.47,0-3.02,1.71-4.91,1.16-1.34,2.65-2.47,3.41-2.47,5.49-1.13,10.24,3.97,8.53,8.9Z"/>
    <path class="cls-8" d="M691.99,588.66c-3.39-.76-3.6-.76-4.73-3.78-1.89-5.86-7.96-16.07-11.92-21.01-2.1-2.65-7.59-8.14-12.32-12.29-21.61-19.48-38.84-36.32-41.31-39.73-3.02-4.54-4.73-9.82-6.07-18.36-1.89-14.55-5.09-24.58-10.03-31.01-1.31-1.71-3.02-3.97-3.6-4.91-1.71-3.6-15.15-21.77-25.94-35.37-3.28-4.31-5.3-7.51-6.07-9.66-2.47-7.56-9.27-11.34-15.73-8.51-2.44.95-5.09,3.97-5.86,6.8-.58,1.52-.76,20.82-.76,55.8,0,58.45,0,57.72,3.78,68.49,4.73,13.63,12.68,24.03,28.23,36.53l5.3,4.15v5.49c.18,6.62,1.71,10.79,6.07,15.89,9.09,10.61,27.07,11.16,37.13.95,4.91-5.09,7.38-12.47,6.25-19.3-1.34-8.69-6.25-14.94-14.42-18.91-3.78-1.71-4.73-1.89-9.85-1.89-3.97,0-6.62.18-8.72,1.13l-2.84,1.13-5.67-4.33c-12.32-9.66-18.93-17.99-22.16-28.2-1.34-4.15-1.34-5.67-1.52-25.16-.55-48.42-.55-54.49-.18-54.49s1.71,1.52,11.37,13.45c10.43,13.23,13.63,20.61,14.57,34.24.76,10.22,5.3,21.74,11.74,29.88,4.57,5.86,15.15,16.46,29.75,29.52,25.76,23.08,26.71,24.21,31.07,36.32l1.13,3.02-2.07,3.41c-9.09,14.18-2.84,32.17,12.68,37.08,9.85,3.02,21.22,0,27.1-7.38,11.92-14.39,4.15-35.37-14.42-38.97ZM606.02,575.98c2.07-1.5,4.73-1.71,7.2-.18,2.44,1.71,3.41,3.6,3.6,6.43,0,3.41-3.23,6.43-6.83,6.43-2.84,0-4.73-1.13-6.07-3.6-1.89-3.2-1.13-6.43,2.1-9.09ZM687.45,619.67c-2.26,0-5.86-2.63-6.62-5.09-1.13-2.84-.39-4.91,1.89-7.2,1.52-1.31,2.47-1.71,4.73-1.71,2.47,0,3.23.39,4.94,2.1,1.71,1.68,2.07,2.63,2.07,4.33,0,4.18-3.02,7.56-7.01,7.56Z"/>
    <path class="cls-2" d="M588.95,329.69c3.6-11.55-6.43-22.5-18.57-20.25-9.09,1.71-14.94,11.16-12.29,19.85,1.89,6.64,10.03,11.92,16.86,10.98,6.43-1.13,12.5-5.67,14-10.58Z"/>
    <path class="cls-5" d="M516.03,404.61c-2.84,1.5-4.54,4.33-6.25,9.45-.76,2.13-2.78,5.17-6.07,9.09-4.91,5.86-8.69,10.95-20.06,27.05-14.39,19.85-16.68,24.58-18.2,39.34-.95,9.66-2.07,14-4.91,19.12-2.65,4.91-3.99,6.43-31.07,31.59-21.4,19.85-25.58,24.21-29.94,31.41-3.02,4.73-7.38,14-7.38,15.7,0,.37-1.71.95-3.78,1.31-5.3.76-10.43,3.41-13.66,7.01-10.43,11.16-9.09,27.42,3.05,36.11,4.54,3.05,8.69,4.36,14.39,4.36,11.55,0,21.01-6.99,24.42-17.78,2.28-6.8.95-13.63-3.41-20.06l-2.26-3.2,1.52-3.78c3.97-10.61,8.32-15.52,33.51-38.21,14.21-12.87,24.05-22.71,28.05-27.81,6.43-8.9,10.43-19.69,11.16-30.86.58-7.17,1.71-11.9,4.36-17.38,2.1-4.36,10.43-15.34,18.01-24.21l4.15-4.75.21,33.3c.18,35.58-.21,40.49-3.05,48.63-3.02,8.51-9.09,15.89-21.03,25.71l-5.49,4.54-3.2-1.13c-3.81-1.31-11.95-1.5-15.91-.37-3.81,1.13-9.85,5.28-12.5,8.51-3.41,4.36-4.94,8.69-4.94,14.76,0,6.99,1.71,10.98,6.64,16.07,11.74,12.29,32.96,8.9,40.33-6.25,1.52-3.39,1.89-5.09,2.28-10.22l.37-6.04,4.36-3.23c15.15-11.16,25.76-25.89,30.88-42.93l1.71-5.49.18-55.43c.18-38.58,0-55.99-.58-57.69-1.89-6.62-9.85-9.82-15.91-6.22ZM399.72,614c-.37,2.28-3.6,4.94-6.07,5.49-2.84.58-5.86-1.13-7.38-4.15-1.52-2.84-.76-6.43,1.89-8.32,4.94-3.6,12.71,1.13,11.55,6.99ZM476.82,584.12c-1.71,4.73-7.01,6.07-10.98,2.65-2.1-1.71-2.28-2.07-2.28-4.91,0-2.65.39-3.23,2.28-5.12,1.5-1.5,2.65-2.07,4.15-2.07,4.57,0,8.35,5.09,6.83,9.45Z"/>
    <path class="cls-7" d="M599.56,232.45c4.18,8.69,4.94,12.29,4.94,24.03,0,9.45-.18,10.4-1.71,15.13-2.28,6.25-4.94,11.55-7.77,15.34-3.02,4.15-3.97,6.43-3.97,8.51,0,2.47.76,3.78,4.54,8.14,5.49,6.43,7.38,11.53,7.38,20.04,0,11.16-5.67,21.77-14.76,27.63-6.46,3.97-7.96,6.07-7.77,11.16,0,4.73,1.71,7.96,7.38,13.23,3.99,3.99,6.07,5.3,11.95,8.14,9.45,4.54,15.7,5.86,27.84,5.86,23.29.21,40.91-8.88,54.54-27.81,5.44-7.3,9.43-15.76,11.95-25.34,1.13-4.36,1.31-7.2,1.71-31.01.37-24.03.55-26.68,1.89-31.22,1.5-6.25,5.3-13.63,9.85-19.67,6.07-8.14,5.86-7.96,11.37-8.14,8.14-.37,14.97-3.6,19.3-9.27,6.46-8.69,6.64-20.06,0-28.57-9.09-11.92-27.07-13.23-37.87-2.65-5.3,5.12-7.96,14.21-6.43,21.38.37,2.1,1.13,4.54,1.68,5.49.97,1.71.76,1.89-3.39,7.77-7.22,9.82-11.19,17.59-14.42,28.75-1.5,5.67-1.71,6.04-2.07,31.77-.37,27.63-.76,30.07-3.78,38.02-4.36,11.16-12.5,20.61-22.35,26.1-10.24,5.49-23.69,6.8-35.06,3.6-3.02-.95-8.72-3.97-12.5-6.8l-1.89-1.34,2.28-1.71c5.67-4.54,12.68-13.6,15.34-20.04,2.47-5.67,3.6-12.68,3.2-20.06-.55-8.14-1.5-12.29-5.09-19.48l-2.47-5.3,2.65-4.91c9.66-17.2,11.55-38.02,5.12-57.11-8.9-26.68-35.06-48.82-63.65-53.73-6.83-1.16-22.92-1.71-28.6-.95-14.39,1.89-26.15,6.43-38.65,14.55-9.85,6.43-21.22,19.48-26.89,30.28-10.79,20.8-10.43,48.82.76,67.15,1.52,2.28,2.65,4.36,2.65,4.54s-1.13,2.47-2.28,5.12c-3.78,7.75-4.91,13.05-4.91,23.45,0,8.32.18,9.45,1.71,14.18,2.26,6.43,7.75,14.39,13.63,19.88,2.47,2.07,4.36,4.15,4.36,4.33,0,0-2.07,1.52-4.54,3.23-6.43,4.54-12.5,6.25-21.4,6.25s-14.02-1.16-20.85-4.36c-12.68-6.07-21.59-17.23-26.31-33.11-.97-3.2-1.16-7.75-1.52-30.46-.58-28.75-.39-27.42-4.18-38.97-2.65-7.56-5.3-12.84-10.43-20.04-6.43-9.27-6.43-9.09-5.3-11.16,1.71-3.23,2.47-9.45,1.71-13.26-1.71-8.32-6.62-14.55-14.39-18.15-3.78-1.71-4.73-1.89-10.03-1.89-8.14.18-12.32,1.71-17.25,6.43-4.91,4.91-7.56,10.22-7.75,16.65-.39,5.86.95,9.82,4.73,14.55,4.94,6.43,11.55,9.66,19.88,9.66h5.12l3.05,3.97c7.2,9.45,10.98,17.23,13.26,26.68.95,3.97,1.13,8.69,1.13,28.36.18,19.3.37,24.42,1.31,28.57,5.49,26.5,25.21,48.24,49.45,54.12,5.12,1.31,7.2,1.5,17.44,1.5,13.63-.18,17.59-.95,28.02-5.86,5.12-2.47,7.59-4.18,11.37-7.56,5.88-5.49,8.14-9.27,8.14-13.63,0-4.73-1.71-7.38-7.96-11.74-7.38-5.09-10.98-10.4-13.26-19.27-2.84-10.61-.37-21.38,6.43-28.57,3.41-3.41,4.18-4.91,4.18-7.38,0-2.28-.55-3.6-5.12-10.21-2.44-3.41-4.15-7.2-5.86-11.92l-2.47-6.8v-10.43c0-11.9.58-14.94,4.94-23.63,12.11-24.21,39.39-39.34,65.91-36.32,8.14.95,14.21,2.65,20.82,5.67,14.02,6.25,25.39,17.2,32.01,30.65ZM712.26,220.34c.58-1.89,1.34-2.84,3.05-3.6,3.39-1.71,7.38-.58,9.45,2.84,1.71,2.84,1.52,5.12-.95,7.38-1.89,1.89-2.47,2.07-5.3,2.07s-3.6-.18-4.91-1.5c-2.1-2.28-2.47-4.36-1.34-7.2ZM365.24,228.48c-2.26.95-6.04.74-7.56-.39-1.71-1.13-3.23-3.97-3.23-5.86,0-1.71,2.65-5.12,4.54-5.86,4.18-1.71,8.9,1.13,9.66,5.49.39,2.63-1.13,5.86-3.41,6.62Z"/>
    <path class="cls-3" d="M522.85,324.96c-.18-4.36-1.13-7.2-3.99-10.22-4.91-5.49-12.87-6.83-19.51-3.78-10.98,5.49-11.16,21.38-.18,27.23,6.46,3.41,12.89,2.47,18.2-2.26,3.97-3.41,5.49-6.43,5.49-10.98Z"/>
  </g>
  <g>
    <path class="cls-6" d="M101.55,687.2c8.78,4.65,15.57,11.18,20.38,19.59,4.81,8.41,7.22,18.11,7.22,29.11s-2.41,20.57-7.22,29.03c-4.81,8.46-11.63,15.02-20.46,19.67-8.83,4.65-19.06,6.98-30.69,6.98H29.06v-111.36h41.72c11.74,0,21.99,2.33,30.77,6.98ZM92.99,759.69c5.71-5.6,8.57-13.53,8.57-23.79s-2.86-18.24-8.57-23.95c-5.71-5.71-13.7-8.57-23.95-8.57h-12.85v64.72h12.85c10.26,0,18.24-2.8,23.95-8.41Z"/>
    <path class="cls-6" d="M227.34,753.82h-61.39c.42,5.5,2.19,9.7,5.31,12.61,3.12,2.91,6.95,4.36,11.5,4.36,6.77,0,11.47-2.86,14.12-8.57h28.87c-1.48,5.82-4.15,11.05-8.01,15.7-3.86,4.65-8.7,8.3-14.51,10.95-5.82,2.64-12.32,3.96-19.51,3.96-8.67,0-16.39-1.85-23.16-5.55-6.77-3.7-12.06-8.99-15.86-15.86-3.81-6.87-5.71-14.91-5.71-24.11s1.88-17.24,5.63-24.11c3.75-6.87,9.01-12.16,15.78-15.86,6.77-3.7,14.54-5.55,23.32-5.55s16.18,1.8,22.84,5.39c6.66,3.6,11.87,8.72,15.63,15.39,3.75,6.66,5.63,14.44,5.63,23.32,0,2.54-.16,5.18-.48,7.93ZM200.06,738.75c0-4.65-1.59-8.35-4.76-11.1-3.17-2.75-7.14-4.12-11.9-4.12s-8.38,1.32-11.5,3.97c-3.12,2.64-5.05,6.4-5.79,11.26h33.95Z"/>
    <path class="cls-6" d="M281.91,766.19l19.19-63.13h28.87l-31.41,88.52h-33.47l-31.41-88.52h29.03l19.19,63.13Z"/>
    <path class="cls-6" d="M358.21,692.75v36.96h40.29v11.9h-40.29v38.07h45.05v11.9h-59.49v-110.72h59.49v11.9h-45.05Z"/>
    <path class="cls-6" d="M541.6,707.26c5.29,2.8,9.46,7.01,12.53,12.61,3.07,5.61,4.6,12.43,4.6,20.46v51.24h-14.28v-49.18c0-8.67-2.14-15.31-6.42-19.91s-10.07-6.9-17.37-6.9-13.48,2.41-17.93,7.22c-4.44,4.81-6.66,11.77-6.66,20.86v47.91h-14.28v-49.18c0-8.67-2.14-15.31-6.43-19.91-4.28-4.6-10.07-6.9-17.37-6.9s-13.48,2.41-17.93,7.22c-4.44,4.81-6.66,11.77-6.66,20.86v47.91h-14.44v-86.93h14.44v12.53c2.86-4.55,6.69-8.04,11.5-10.47,4.81-2.43,10.12-3.65,15.94-3.65,7.3,0,13.75,1.64,19.35,4.92,5.6,3.28,9.78,8.09,12.53,14.43,2.43-6.13,6.45-10.89,12.06-14.28,5.6-3.38,11.84-5.08,18.72-5.08s12.79,1.4,18.08,4.2Z"/>
    <path class="cls-6" d="M598.46,708.21c5.66-3.33,12.24-5,19.75-5s14.73,1.85,21.02,5.55c6.29,3.7,11.24,8.91,14.83,15.63,3.59,6.72,5.39,14.51,5.39,23.4s-1.8,16.6-5.39,23.48c-3.6,6.88-8.54,12.21-14.83,16.02-6.29,3.81-13.3,5.71-21.02,5.71s-13.94-1.67-19.59-5c-5.66-3.33-9.97-7.48-12.93-12.45v57.27h-14.44v-128.17h14.44v16.02c2.86-4.97,7.11-9.12,12.77-12.45ZM640.73,730.66c-2.65-4.86-6.21-8.57-10.71-11.1-4.5-2.54-9.44-3.81-14.83-3.81s-10.18,1.3-14.67,3.89c-4.5,2.59-8.09,6.34-10.79,11.26-2.7,4.92-4.04,10.6-4.04,17.05s1.35,12.29,4.04,17.21c2.7,4.92,6.29,8.67,10.79,11.26,4.49,2.59,9.38,3.89,14.67,3.89s10.34-1.29,14.83-3.89c4.49-2.59,8.06-6.34,10.71-11.26,2.64-4.92,3.97-10.71,3.97-17.37s-1.32-12.27-3.97-17.13Z"/>
    <path class="cls-6" d="M694.27,787.45c-6.61-3.7-11.79-8.96-15.55-15.78-3.75-6.82-5.63-14.73-5.63-23.72s1.93-16.74,5.79-23.56c3.86-6.82,9.12-12.06,15.78-15.7,6.66-3.65,14.12-5.47,22.37-5.47s15.7,1.82,22.37,5.47c6.66,3.65,11.92,8.86,15.78,15.62,3.86,6.77,5.79,14.65,5.79,23.64s-1.98,16.89-5.95,23.72c-3.97,6.82-9.33,12.08-16.1,15.78-6.77,3.7-14.28,5.55-22.53,5.55s-15.52-1.85-22.13-5.55ZM730.99,776.66c4.55-2.43,8.22-6.08,11.02-10.95,2.8-4.86,4.2-10.79,4.2-17.77s-1.38-12.9-4.12-17.77c-2.75-4.86-6.34-8.49-10.79-10.87-4.44-2.38-9.25-3.57-14.43-3.57s-10.13,1.19-14.52,3.57c-4.39,2.38-7.91,6-10.55,10.87-2.65,4.87-3.97,10.79-3.97,17.77s1.29,13.06,3.89,17.93c2.59,4.87,6.05,8.49,10.39,10.87,4.33,2.38,9.09,3.57,14.28,3.57s10.05-1.21,14.59-3.65Z"/>
    <path class="cls-6" d="M895.8,704.65l-27.13,86.93h-14.91l-20.94-69-20.94,69h-14.91l-27.28-86.93h14.75l19.99,72.97,21.57-72.97h14.75l21.1,73.13,19.67-73.13h14.28Z"/>
    <path class="cls-6" d="M988.92,753.5h-69.48c.53,8.57,3.46,15.26,8.8,20.07,5.34,4.81,11.82,7.22,19.43,7.22,6.24,0,11.45-1.45,15.62-4.36,4.18-2.91,7.11-6.79,8.8-11.66h15.54c-2.33,8.35-6.98,15.15-13.96,20.38-6.98,5.23-15.65,7.85-26.01,7.85-8.25,0-15.63-1.85-22.13-5.55-6.5-3.7-11.61-8.96-15.31-15.78-3.7-6.82-5.55-14.73-5.55-23.72s1.8-16.87,5.39-23.64c3.59-6.77,8.65-11.98,15.15-15.62,6.5-3.65,13.98-5.47,22.45-5.47s15.54,1.8,21.89,5.39c6.34,3.6,11.24,8.54,14.67,14.83,3.44,6.29,5.15,13.4,5.15,21.34,0,2.75-.16,5.66-.48,8.72ZM970.83,727.57c-2.43-3.97-5.74-6.98-9.91-9.04-4.18-2.06-8.8-3.09-13.88-3.09-7.3,0-13.51,2.33-18.64,6.98-5.13,4.66-8.07,11.1-8.8,19.35h54.89c0-5.5-1.22-10.23-3.65-14.2Z"/>
    <path class="cls-6" d="M1033.73,707.18c4.7-2.75,10.44-4.12,17.21-4.12v14.91h-3.81c-16.18,0-24.27,8.78-24.27,26.33v47.27h-14.44v-86.93h14.44v14.12c2.54-4.97,6.16-8.83,10.87-11.58Z"/>
  </g>
  <g>
    <path class="cls-6" d="M285.45,863.47c-1,1.88-2.59,3.4-4.79,4.58-2.19,1.18-5,1.77-8.43,1.77h-7.54v16.87h-6.82v-41.57h14.36c3.19,0,5.89.55,8.11,1.65,2.21,1.1,3.87,2.58,4.96,4.46s1.65,3.97,1.65,6.28c0,2.11-.5,4.11-1.5,5.98ZM278.03,862.48c1.28-1.18,1.91-2.84,1.91-4.99,0-4.55-2.57-6.82-7.72-6.82h-7.54v13.58h7.54c2.59,0,4.53-.59,5.8-1.76Z"/>
    <path class="cls-6" d="M304.26,854.58c1.65-.94,3.62-1.41,5.89-1.41v7.06h-1.73c-2.67,0-4.7.68-6.07,2.03-1.38,1.36-2.06,3.71-2.06,7.06v17.35h-6.82v-32.96h6.82v4.79c1-1.68,2.32-2.98,3.98-3.92Z"/>
    <path class="cls-6" d="M322.3,885.09c-2.51-1.42-4.49-3.41-5.92-5.98-1.44-2.57-2.15-5.55-2.15-8.94s.74-6.32,2.21-8.91c1.47-2.59,3.49-4.59,6.04-5.98,2.55-1.4,5.4-2.09,8.55-2.09s6,.7,8.55,2.09c2.55,1.4,4.57,3.39,6.04,5.98,1.47,2.59,2.21,5.56,2.21,8.91s-.76,6.32-2.27,8.91c-1.52,2.59-3.58,4.6-6.19,6.01-2.61,1.42-5.49,2.12-8.64,2.12s-5.92-.71-8.43-2.12ZM335.66,880.03c1.53-.84,2.78-2.09,3.74-3.77.96-1.67,1.44-3.71,1.44-6.1s-.46-4.42-1.38-6.07c-.92-1.65-2.13-2.9-3.65-3.74-1.52-.84-3.15-1.26-4.91-1.26s-3.38.42-4.87,1.26c-1.5.84-2.68,2.08-3.56,3.74-.88,1.65-1.32,3.68-1.32,6.07,0,3.55.91,6.29,2.72,8.23,1.81,1.93,4.1,2.9,6.85,2.9,1.75,0,3.4-.42,4.94-1.26Z"/>
    <path class="cls-6" d="M374.66,854.7c1.97,1.02,3.52,2.28,4.64,3.8v-4.79h6.88v33.5c0,3.03-.64,5.73-1.91,8.11-1.28,2.37-3.12,4.24-5.53,5.59-2.41,1.36-5.29,2.03-8.64,2.03-4.47,0-8.18-1.05-11.13-3.14-2.95-2.09-4.63-4.94-5.02-8.52h6.76c.52,1.71,1.62,3.1,3.32,4.16s3.72,1.59,6.07,1.59c2.75,0,4.97-.84,6.67-2.51,1.69-1.67,2.54-4.11,2.54-7.3v-5.5c-1.16,1.56-2.72,2.86-4.7,3.92-1.97,1.06-4.22,1.59-6.73,1.59-2.87,0-5.49-.73-7.87-2.18-2.37-1.45-4.25-3.49-5.62-6.1-1.38-2.61-2.06-5.57-2.06-8.88s.69-6.24,2.06-8.79c1.38-2.55,3.25-4.54,5.62-5.95,2.37-1.42,4.99-2.12,7.87-2.12,2.55,0,4.81.51,6.79,1.53ZM377.9,864.24c-.94-1.67-2.16-2.95-3.68-3.83-1.52-.88-3.15-1.32-4.91-1.32s-3.39.43-4.91,1.29c-1.52.86-2.74,2.11-3.68,3.77-.94,1.66-1.4,3.62-1.4,5.89s.47,4.27,1.4,5.98c.94,1.72,2.17,3.02,3.71,3.92,1.53.9,3.16,1.35,4.87,1.35s3.39-.44,4.91-1.32c1.52-.88,2.74-2.16,3.68-3.86.94-1.69,1.41-3.68,1.41-5.95s-.47-4.25-1.41-5.92Z"/>
    <path class="cls-6" d="M405.95,854.58c1.65-.94,3.62-1.41,5.89-1.41v7.06h-1.73c-2.67,0-4.69.68-6.07,2.03-1.38,1.36-2.06,3.71-2.06,7.06v17.35h-6.82v-32.96h6.82v4.79c1-1.68,2.32-2.98,3.98-3.92Z"/>
    <path class="cls-6" d="M417.91,861.25c1.38-2.55,3.25-4.54,5.62-5.95,2.37-1.42,4.99-2.12,7.87-2.12,2.59,0,4.86.51,6.79,1.53,1.93,1.02,3.48,2.28,4.64,3.8v-4.79h6.88v32.96h-6.88v-4.91c-1.16,1.55-2.73,2.85-4.73,3.89s-4.27,1.55-6.82,1.55c-2.83,0-5.42-.73-7.78-2.18-2.35-1.45-4.22-3.49-5.59-6.1-1.38-2.61-2.06-5.57-2.06-8.88s.69-6.24,2.06-8.79ZM441.42,864.24c-.94-1.67-2.16-2.95-3.68-3.83-1.52-.88-3.15-1.32-4.91-1.32s-3.39.43-4.91,1.29c-1.52.86-2.74,2.11-3.68,3.77-.94,1.66-1.41,3.62-1.41,5.89s.47,4.27,1.41,5.98c.94,1.72,2.17,3.02,3.71,3.92s3.16,1.35,4.88,1.35,3.39-.44,4.91-1.32c1.51-.88,2.74-2.16,3.68-3.86.94-1.69,1.41-3.68,1.41-5.95s-.47-4.25-1.41-5.92Z"/>
    <path class="cls-6" d="M505.54,854.79c2.05,1.08,3.67,2.67,4.85,4.79,1.18,2.11,1.77,4.67,1.77,7.66v19.44h-6.76v-18.42c0-2.95-.74-5.21-2.21-6.79-1.48-1.57-3.49-2.36-6.04-2.36s-4.58.79-6.07,2.36c-1.5,1.58-2.24,3.84-2.24,6.79v18.42h-6.76v-18.42c0-2.95-.74-5.21-2.21-6.79-1.48-1.57-3.49-2.36-6.04-2.36s-4.58.79-6.07,2.36c-1.5,1.58-2.24,3.84-2.24,6.79v18.42h-6.82v-32.96h6.82v3.77c1.12-1.36,2.53-2.41,4.25-3.17,1.71-.76,3.55-1.14,5.5-1.14,2.63,0,4.98.56,7.06,1.68,2.07,1.12,3.67,2.73,4.79,4.84,1-1.99,2.55-3.58,4.67-4.76,2.11-1.18,4.39-1.77,6.82-1.77,2.59,0,4.92.54,6.97,1.62Z"/>
    <path class="cls-6" d="M550.8,872.74h-25.18c.2,2.63,1.18,4.75,2.93,6.34s3.91,2.39,6.46,2.39c3.67,0,6.26-1.54,7.78-4.61h7.36c-1,3.03-2.8,5.51-5.41,7.45-2.61,1.93-5.85,2.9-9.72,2.9-3.15,0-5.97-.71-8.46-2.12-2.49-1.42-4.45-3.41-5.86-5.98-1.42-2.57-2.12-5.55-2.12-8.94s.69-6.37,2.06-8.94c1.38-2.57,3.31-4.56,5.8-5.95,2.49-1.4,5.35-2.09,8.58-2.09s5.88.68,8.31,2.03c2.43,1.36,4.33,3.26,5.68,5.71,1.35,2.45,2.03,5.27,2.03,8.46,0,1.24-.08,2.35-.24,3.35ZM543.92,867.23c-.04-2.51-.94-4.53-2.69-6.04-1.75-1.52-3.93-2.27-6.52-2.27-2.35,0-4.37.75-6.04,2.24-1.67,1.5-2.67,3.52-2.99,6.07h18.24Z"/>
    <path class="cls-6" d="M579.15,885.09c-2.51-1.42-4.49-3.41-5.92-5.98-1.44-2.57-2.15-5.55-2.15-8.94s.74-6.32,2.21-8.91,3.49-4.59,6.04-5.98c2.55-1.4,5.4-2.09,8.56-2.09s6,.7,8.55,2.09c2.55,1.4,4.57,3.39,6.04,5.98,1.47,2.59,2.21,5.56,2.21,8.91s-.76,6.32-2.27,8.91-3.58,4.6-6.19,6.01c-2.61,1.42-5.49,2.12-8.64,2.12s-5.92-.71-8.43-2.12ZM592.52,880.03c1.54-.84,2.78-2.09,3.74-3.77s1.44-3.71,1.44-6.1-.46-4.42-1.38-6.07c-.92-1.65-2.13-2.9-3.65-3.74-1.52-.84-3.15-1.26-4.91-1.26s-3.38.42-4.87,1.26c-1.5.84-2.68,2.08-3.56,3.74s-1.32,3.68-1.32,6.07c0,3.55.91,6.29,2.72,8.23,1.82,1.93,4.1,2.9,6.85,2.9,1.75,0,3.4-.42,4.93-1.26Z"/>
    <path class="cls-6" d="M653.56,844.68v8.19h-17.11v8.85h12.8v7.96h-12.8v16.99h-10.23v-41.99h27.34Z"/>
    <path class="cls-6" d="M691.91,853.3v33.38h-10.23v-4.55c-1.04,1.48-2.44,2.66-4.22,3.56s-3.74,1.35-5.89,1.35c-2.55,0-4.81-.57-6.76-1.7-1.95-1.14-3.47-2.78-4.55-4.94s-1.62-4.69-1.62-7.6v-19.5h10.17v18.13c0,2.23.58,3.97,1.73,5.2,1.16,1.24,2.71,1.85,4.67,1.85s3.57-.62,4.73-1.85c1.16-1.24,1.73-2.97,1.73-5.2v-18.13h10.23Z"/>
    <path class="cls-6" d="M717.87,878v8.67h-5.2c-3.71,0-6.6-.91-8.67-2.72-2.07-1.81-3.11-4.77-3.11-8.88v-13.28h-4.07v-8.49h4.07v-8.13h10.23v8.13h6.7v8.49h-6.7v13.4c0,1,.24,1.72.72,2.15.48.44,1.28.66,2.39.66h3.65Z"/>
    <path class="cls-6" d="M756.51,853.3v33.38h-10.23v-4.55c-1.04,1.48-2.44,2.66-4.22,3.56s-3.74,1.35-5.89,1.35c-2.55,0-4.81-.57-6.76-1.7-1.95-1.14-3.47-2.78-4.55-4.94s-1.62-4.69-1.62-7.6v-19.5h10.17v18.13c0,2.23.58,3.97,1.73,5.2,1.16,1.24,2.71,1.85,4.67,1.85s3.57-.62,4.73-1.85c1.16-1.24,1.73-2.97,1.73-5.2v-18.13h10.23Z"/>
    <path class="cls-6" d="M778.58,854.52c1.79-1.06,3.79-1.59,5.98-1.59v10.83h-2.81c-2.55,0-4.47.55-5.74,1.64-1.28,1.1-1.91,3.02-1.91,5.77v15.49h-10.23v-33.38h10.23v5.56c1.2-1.83,2.69-3.28,4.49-4.34Z"/>
    <path class="cls-6" d="M795.84,885.06c-2.61-1.4-4.67-3.39-6.16-5.98-1.5-2.59-2.24-5.62-2.24-9.09s.76-6.45,2.27-9.06,3.59-4.62,6.22-6.01c2.63-1.4,5.58-2.09,8.85-2.09s6.22.7,8.85,2.09c2.63,1.4,4.71,3.4,6.22,6.01s2.27,5.63,2.27,9.06-.77,6.45-2.3,9.06c-1.54,2.61-3.63,4.62-6.28,6.01-2.65,1.4-5.61,2.09-8.88,2.09s-6.21-.7-8.82-2.09ZM809.66,876.15c1.38-1.44,2.06-3.49,2.06-6.16s-.67-4.72-2-6.16c-1.34-1.44-2.98-2.15-4.94-2.15s-3.65.71-4.96,2.12c-1.32,1.42-1.97,3.48-1.97,6.19s.65,4.73,1.94,6.16c1.3,1.44,2.92,2.15,4.87,2.15s3.62-.72,5-2.15Z"/>
  </g>
</svg>